<svg id="Layer_1" data-name="Layer 1" xmlns="http://www.w3.org/2000/svg" xmlns:xlink="http://www.w3.org/1999/xlink" viewBox="0 0 1080 1080"><defs><style>.cls-1{fill:#b0b0b0;opacity:0.36;}.cls-2{fill:#262626;}.cls-3{fill:#898989;}.cls-4{fill:#5c5c5c;}.cls-5{fill:#fed5b1;}.cls-6{fill:#532a14;}.cls-7{fill:#ba3192;}.cls-11,.cls-13,.cls-8{stroke:#020202;}.cls-11,.cls-13,.cls-15,.cls-17,.cls-22,.cls-23,.cls-8{stroke-miterlimit:10;}.cls-8{stroke-width:1.42px;fill:url(#linear-gradient);}.cls-9{fill:#2b3583;}.cls-10{fill:#a3a1a3;}.cls-11{stroke-width:1.38px;fill:url(#linear-gradient-2);}.cls-12{fill:#f37e8c;}.cls-13{stroke-width:1.45px;fill:url(#linear-gradient-3);}.cls-14{fill:#b2e1ee;}.cls-15{fill:#fff;stroke:#262626;stroke-width:8.11px;}.cls-16{fill:#b7b7b7;}.cls-17,.cls-22,.cls-23{fill:none;stroke:#16733a;}.cls-17{stroke-width:2.5px;}.cls-18{fill:#f5c1ab;}.cls-19{fill:#231f20;}.cls-20{fill:#16123f;}.cls-21{fill:#eed144;opacity:0.32;}.cls-22{stroke-width:2.55px;}.cls-23{stroke-width:2.49px;}.cls-24{fill:#32b1b6;}.cls-25{fill:#096977;}</style><linearGradient id="linear-gradient" x1="326.03" y1="1404.56" x2="395.17" y2="1404.56" gradientTransform="matrix(-1, -0.09, -0.09, 1, 669.73, -449.76)" gradientUnits="userSpaceOnUse"><stop offset="0" stop-color="#fff"/><stop offset="1"/></linearGradient><linearGradient id="linear-gradient-2" x1="291.35" y1="1212.24" x2="358.4" y2="1212.24" gradientTransform="matrix(-1, -0.09, -0.09, 1, 800.92, -449.76)" xlink:href="#linear-gradient"/><linearGradient id="linear-gradient-3" x1="-331.96" y1="1344.31" x2="-261.5" y2="1344.31" gradientTransform="matrix(1, -0.09, 0.09, 1, 946.53, -449.76)" xlink:href="#linear-gradient"/></defs><path class="cls-1" d="M0,4V1080H1080V4ZM812,989l-597.9-305.2,471.65-412s.56,7,12.41,22.3c7.65,9.94,35.62,27.68,69,10.84,13.94-7,20.82-22.77,20.82-22.77l285.62,489.24Z"/><path class="cls-2" d="M755,800.69a87,87,0,0,0-21.74,2.54c-3,.73-6.61,3.29-5.08,5.9.84,1.42,2.75,1.68,4.4,1.74a116.11,116.11,0,0,0,20.58-1c2.46-.34,5.1-.87,6.72-2.75s1.25-5.48-1.15-6.1"/><path class="cls-3" d="M761.62,754c-2.28-2.16-5.17-4.48-8.21-3.69-4.12,1.08-4.73,6.59-4.49,10.84q.83,14.45,1.64,28.87c.17,2.85.36,5.81,1.74,8.31s4.32,4.38,7.06,3.6c3.95-1.12,4.73-6.28,4.8-10.38a95.37,95.37,0,0,1,1.34-16.46c.94-4.86,2.58-9.76,1.75-14.64s-5.39-9.61-10.19-8.39"/><path class="cls-4" d="M774.84,767l-35.45-13.62a6.89,6.89,0,0,1-3.34-2,4,4,0,0,1-.4-2.64L737,732.22a67.26,67.26,0,0,1,10.77,4l20.32,9c1.47.65,3,1.38,3.68,2.56a4.94,4.94,0,0,1,.12,3.31,25,25,0,0,0,2.9,16.28"/><path class="cls-2" d="M770.24,746l-30.1-13.06c-1.18-.51-2.56-1.43-2-2.36a2.68,2.68,0,0,1,1.32-.86q15-6.2,30.57-11.49c1.39-.48,3.14-.92,4.34-.2a2.81,2.81,0,0,1,1.15,2.38,70.08,70.08,0,0,1-.86,18.9c-.46,2.49-1.3,5.25-4.12,6.58"/><path class="cls-4" d="M783.31,767.61a236.93,236.93,0,0,1,17.08,44.89c.41,1.52-.19,4-1.64,3.38a2.16,2.16,0,0,1-1-1.25L787.3,790.17c-2.51-5.88-5-11.8-6.43-18-.4-1.8-.61-3.94.69-5.25s4.3-.07,3.55,1.62"/><path class="cls-4" d="M834.41,742.25l18,43.63a7.51,7.51,0,0,1,.84,4.34c-.32,1.47-2,2.72-3.32,2a3.7,3.7,0,0,1-1.5-2q-8.7-19.46-17.39-38.92a10,10,0,0,1-1.17-4.14,3.45,3.45,0,0,1,2.25-3.36c1.4-.36,3.08,1.06,2.58,2.42"/><path class="cls-4" d="M813.72,753.19a53,53,0,0,1-2,18.66,1.93,1.93,0,0,1-.81,1.29c-1.16.59-2-1.22-2.05-2.52l-.75-17.46a4.13,4.13,0,0,1,.33-2.24c.92-1.58,3.56-1.08,4.54.46s.82,3.51.62,5.33"/><path class="cls-5" d="M773.09,614.62c-3,11.13-12.1,23.58,6.29,39.4,2.11,1.81,5.21,2.76,7.51,4.34s11.5-.22,14-1.44"/><path class="cls-5" d="M706.56,643.29a31.75,31.75,0,0,1-6.79-14.82c-.3-1.75-.1-4.09,1.6-4.59,2-.57,3.34,1.82,4,3.76l5.5,17.65"/><path class="cls-5" d="M548.41,865.33a31.65,31.65,0,0,1-1-16.27c.36-1.74,1.39-3.85,3.16-3.7,2,.17,2.45,2.91,2.31,4.93l-1.26,18.45"/><path class="cls-3" d="M769.53,701.36a346.94,346.94,0,0,0-48.16,4.3c-4.58.74-9.42,1.7-12.76,4.91-5.2,5-4.79,13.29-4,20.46q4.17,37.76,8.33,75.5c.42,3.84,1.18,8.24,4.5,10.22,3.94,2.35,9.31-.41,11.44-4.47s2-8.89,1.84-13.47a247.27,247.27,0,0,1,6.06-60.15c.56-2.46,1.3-5.13,3.38-6.55,2.44-1.66,5.78-1,8.46.3,9.67,4.49,18.09,15.23,28.4,12.51,8.3-2.19,11.86-12.39,10.9-20.91-1.14-10.21-8.24-20.6-18.44-21.73"/><path class="cls-6" d="M711,826.78l4.8-6.79c1.1-1.57-1.47-3-2.57-1.5l-4.8,6.79c-1.1,1.57,1.47,3.05,2.57,1.5Z"/><path class="cls-2" d="M723.23,815.58l-17.68,2.22c-7.7,1-15.48,2-22.75,4.67a3.57,3.57,0,0,0-2,1.37,2.56,2.56,0,0,0,1.21,3.25,7.29,7.29,0,0,0,3.74.64,327.62,327.62,0,0,0,46.92-3.66,14.37,14.37,0,0,0-4.82-7.79"/><path d="M802.55,614.29c-3.87-5-10.76-6.17-17-7-5.63-.75-12.44-1-15.79,3.54-3,4.1-1.37,10.13,2,13.92s8.07,6.06,12.25,8.93,8.16,6.85,8.67,11.9c.34,3.35-.91,6.76-.25,10.07s5,6.17,7.29,3.75a6.18,6.18,0,0,0,1.13-1.9l4.83-11c3.22-7.31,6.51-15.39,4.32-23.08-1.56-5.45-5.66-9.77-9.77-13.68"/><path class="cls-7" d="M799.57,654.42c-12.25-3.59-24.25,5.11-35.41,11.31a99.8,99.8,0,0,1-36.77,11.84l-10.74-27c-1.15-2.89-2.42-5.93-4.9-7.8s-6.6-1.95-8.3.65a117,117,0,0,0,11.12,43.85c.82,1.73,1.8,3.56,3.52,4.38s3.51.47,5.28.16l33.9-6c3.65,7.87,1.77,17,.78,25.63s-.44,18.61,6.27,24.09c7.63,6.23,18.9,3.4,28.24.26l22.19-7.45c4.55-1.53,9.34-3.21,12.4-6.9,2.81-3.38,3.72-7.9,4.54-12.22,2.52-13.25,5-27.36,0-39.91s-20.37-22-32.25-15.57"/><path class="cls-4" d="M784.76,695.84c-1.13-.86-3.13-.62-4.39.2a7.72,7.72,0,0,0-2.53,3.26c-7.8,15.84-7.2,33.15-6.49,49.89.24,5.75.49,11.55,2.34,17.06.57,1.71,1.63,3.62,3.82,3.93,2.61.36,4.74-1.79,5.9-3.73,4.73-7.9,5.21-16.82,5.6-25.44l1.47-32c.24-5.28,0-11.36-5.13-14.52l-3.05,2.37"/><path class="cls-4" d="M778,699.29A422.59,422.59,0,0,1,835,667c2.21-1,4.7-2.07,7-1.37,3.6,1.07,4.68,5.41,4.86,9,.47,9.37-1.1,18.71-2.66,28l-5.19,30.78a16.28,16.28,0,0,1-2,6.23c-1.38,2.13-3.67,3.54-5.88,4.88l-46,27.79c-2.73-4.27-2.81-9.58-2.8-14.59q.06-31,.13-62.07l1,4.14"/><path class="cls-2" d="M977.63,880.05a87,87,0,0,0-21.74,2.54c-2.94.73-6.61,3.28-5.07,5.9.83,1.42,2.75,1.68,4.39,1.74a116.17,116.17,0,0,0,20.59-1.05c2.45-.34,5.1-.88,6.71-2.75s1.25-5.49-1.15-6.1"/><path class="cls-3" d="M984.28,833.33c-2.29-2.16-5.18-4.49-8.22-3.69-4.11,1.08-4.73,6.59-4.49,10.84l1.65,28.87c.16,2.85.35,5.81,1.73,8.31s4.32,4.38,7.07,3.6c3.94-1.12,4.72-6.28,4.8-10.38a95.37,95.37,0,0,1,1.33-16.46c1-4.86,2.59-9.76,1.75-14.64s-5.39-9.61-10.18-8.39"/><path class="cls-4" d="M997.49,846.34,962,832.73c-1.3-.5-2.69-1.06-3.34-2.05a4,4,0,0,1-.39-2.64l1.35-16.46a67.73,67.73,0,0,1,10.78,4l20.31,8.95c1.47.65,3,1.37,3.68,2.55a5,5,0,0,1,.13,3.32,25,25,0,0,0,2.89,16.28"/><path class="cls-2" d="M992.9,825.33l-30.1-13.06c-1.19-.51-2.56-1.43-2-2.37a2.74,2.74,0,0,1,1.31-.86q15-6.18,30.58-11.48c1.39-.48,3.14-.92,4.33-.2a2.78,2.78,0,0,1,1.15,2.38,70.09,70.09,0,0,1-.86,18.9c-.45,2.49-1.3,5.25-4.11,6.57"/><path class="cls-4" d="M1006,847A236.81,236.81,0,0,1,1023,891.85c.41,1.53-.19,4-1.64,3.39a2.15,2.15,0,0,1-1-1.25L1010,869.52c-2.52-5.87-5.05-11.79-6.44-18-.4-1.8-.61-3.94.69-5.25s4.31-.07,3.56,1.62"/><path class="cls-4" d="M1057.06,821.6l18,43.64a7.5,7.5,0,0,1,.83,4.34c-.32,1.46-2,2.72-3.31,2a3.8,3.8,0,0,1-1.51-2l-17.38-38.92a10.07,10.07,0,0,1-1.17-4.14,3.45,3.45,0,0,1,2.25-3.36c1.4-.36,3.07,1.06,2.58,2.42"/><path class="cls-4" d="M1036.38,832.55a53.23,53.23,0,0,1-2,18.66,2,2,0,0,1-.81,1.29c-1.16.59-2-1.22-2.06-2.53l-.75-17.46a4.11,4.11,0,0,1,.33-2.23c.92-1.58,3.56-1.08,4.55.46s.82,3.51.62,5.32"/><path class="cls-5" d="M995.75,694c-3,11.14-12.11,23.59,6.28,39.41,2.11,1.81,5.22,2.76,7.51,4.34s11.51-.22,14-1.44"/><path class="cls-5" d="M929.22,722.64a31.59,31.59,0,0,1-6.8-14.81c-.29-1.76-.1-4.09,1.61-4.59,1.94-.57,3.34,1.82,3.94,3.76l5.51,17.65"/><path class="cls-3" d="M992.19,780.72A347.08,347.08,0,0,0,944,785c-4.57.73-9.42,1.7-12.76,4.91-5.19,5-4.78,13.29-4,20.46q4.15,37.74,8.32,75.5c.43,3.84,1.19,8.23,4.51,10.22,3.93,2.35,9.3-.41,11.43-4.47s2-8.89,1.85-13.47A247.4,247.4,0,0,1,959.44,818c.56-2.45,1.3-5.12,3.38-6.54,2.44-1.66,5.77-1,8.45.29,9.68,4.5,18.09,15.24,28.41,12.52,8.29-2.19,11.85-12.39,10.9-20.92-1.14-10.2-8.24-20.59-18.45-21.73"/><path class="cls-6" d="M933.65,906.14l4.8-6.8c1.11-1.56-1.47-3.05-2.56-1.5l-4.8,6.8c-1.11,1.56,1.47,3.05,2.56,1.5Z"/><path class="cls-2" d="M945.89,894.94l-17.69,2.22c-7.7,1-15.48,2-22.74,4.67a3.63,3.63,0,0,0-2,1.37,2.55,2.55,0,0,0,1.21,3.24,7.3,7.3,0,0,0,3.74.65,326.08,326.08,0,0,0,46.92-3.67,14.33,14.33,0,0,0-4.81-7.78"/><path d="M1025.2,693.64c-3.86-5-10.76-6.17-17-7-5.63-.76-12.44-1-15.8,3.54-3,4.09-1.36,10.12,2,13.92s8.07,6.06,12.25,8.92,8.16,6.86,8.68,11.9c.34,3.36-.91,6.77-.26,10.07s5,6.18,7.3,3.76a6.48,6.48,0,0,0,1.12-1.9l4.84-11c3.22-7.32,6.51-15.39,4.31-23.08-1.56-5.45-5.65-9.77-9.76-13.68"/><path class="cls-7" d="M1022.22,733.78c-12.25-3.59-24.24,5.11-35.41,11.31a99.69,99.69,0,0,1-36.76,11.84L939.3,730c-1.15-2.89-2.41-5.93-4.9-7.8s-6.59-1.95-8.29.65a117.26,117.26,0,0,0,11.11,43.85c.82,1.73,1.8,3.56,3.53,4.38s3.51.47,5.27.16l33.91-6c3.64,7.87,1.76,17,.77,25.63S980.26,809.5,987,815c7.63,6.23,18.89,3.39,28.23.26l22.2-7.45c4.54-1.53,9.33-3.22,12.4-6.9,2.81-3.38,3.72-7.9,4.54-12.22,2.51-13.26,5-27.36,0-39.91s-20.36-22-32.25-15.58"/><path class="cls-4" d="M1007.41,775.2c-1.12-.87-3.12-.62-4.38.2a7.59,7.59,0,0,0-2.53,3.26c-7.8,15.84-7.21,33.14-6.5,49.89.24,5.75.5,11.55,2.34,17.06.57,1.7,1.64,3.62,3.83,3.93,2.61.36,4.73-1.79,5.9-3.73,4.72-7.91,5.2-16.82,5.6-25.45l1.46-31.94c.24-5.28,0-11.36-5.13-14.52l-3,2.36"/><path class="cls-4" d="M1000.69,778.65a422.7,422.7,0,0,1,57-32.26c2.2-1,4.69-2.07,7-1.37,3.6,1.07,4.68,5.41,4.86,9,.47,9.37-1.09,18.71-2.66,28l-5.19,30.78a16.21,16.21,0,0,1-1.94,6.22c-1.38,2.14-3.67,3.55-5.89,4.89l-46,27.79c-2.73-4.27-2.8-9.58-2.79-14.6l.12-62.07,1,4.14"/><path class="cls-2" d="M501.34,1020.94a87.43,87.43,0,0,1,21.73,2.54c2.95.73,6.61,3.29,5.08,5.9-.84,1.43-2.75,1.68-4.4,1.74a117.06,117.06,0,0,1-20.58-1c-2.45-.35-5.1-.88-6.72-2.76s-1.25-5.48,1.15-6.1"/><path class="cls-3" d="M494.69,974.22c2.28-2.16,5.17-4.48,8.21-3.69,4.12,1.08,4.73,6.59,4.49,10.84q-.83,14.45-1.64,28.88c-.17,2.84-.36,5.8-1.74,8.3s-4.32,4.38-7.06,3.6c-3.95-1.12-4.73-6.28-4.8-10.38a95.37,95.37,0,0,0-1.34-16.46c-.94-4.85-2.58-9.76-1.75-14.64s5.39-9.61,10.19-8.39"/><path class="cls-4" d="M481.47,987.24l35.45-13.62a6.89,6.89,0,0,0,3.34-2,4,4,0,0,0,.4-2.64l-1.35-16.47a67.37,67.37,0,0,0-10.78,4l-20.32,9c-1.47.65-3,1.38-3.68,2.56a4.94,4.94,0,0,0-.12,3.31,25,25,0,0,1-2.9,16.28"/><path class="cls-2" d="M486.07,966.22l30.1-13.05c1.18-.52,2.56-1.43,2-2.37a2.69,2.69,0,0,0-1.31-.86q-15-6.2-30.58-11.49c-1.39-.47-3.14-.92-4.34-.2a2.77,2.77,0,0,0-1.14,2.38,69.36,69.36,0,0,0,.86,18.91c.45,2.48,1.29,5.25,4.11,6.57"/><path class="cls-4" d="M473,987.86a237.61,237.61,0,0,0-17.08,44.89c-.41,1.52.19,4,1.64,3.38a2.16,2.16,0,0,0,1-1.25L469,1010.42c2.51-5.88,5.05-11.8,6.43-18,.4-1.8.61-3.94-.68-5.25s-4.31-.06-3.56,1.62"/><path class="cls-4" d="M421.9,962.5l-18,43.64a7.45,7.45,0,0,0-.83,4.33c.31,1.47,2,2.72,3.31,2a3.7,3.7,0,0,0,1.5-2q8.7-19.46,17.39-38.92a10,10,0,0,0,1.17-4.14,3.42,3.42,0,0,0-2.25-3.35c-1.4-.37-3.07,1-2.58,2.42"/><path class="cls-4" d="M442.59,973.44a53,53,0,0,0,2,18.66,1.91,1.91,0,0,0,.81,1.29c1.16.59,2-1.22,2.05-2.52l.75-17.46a4,4,0,0,0-.33-2.24c-.92-1.58-3.56-1.08-4.54.46s-.82,3.51-.62,5.33"/><path class="cls-5" d="M483.22,834.87c3,11.14,12.1,23.58-6.29,39.4-2.11,1.81-5.21,2.77-7.5,4.34s-11.51-.21-14-1.44"/><path class="cls-3" d="M486.78,921.61a346.94,346.94,0,0,1,48.16,4.3c4.58.74,9.43,1.7,12.76,4.92,5.2,5,4.79,13.28,4,20.45q-4.17,37.76-8.33,75.5c-.42,3.84-1.18,8.24-4.5,10.22-3.94,2.35-9.31-.41-11.44-4.47s-1.95-8.89-1.84-13.47a247.27,247.27,0,0,0-6.06-60.15c-.56-2.46-1.3-5.13-3.38-6.54-2.44-1.67-5.78-1-8.46.29-9.67,4.49-18.09,15.23-28.4,12.51-8.29-2.19-11.86-12.39-10.9-20.91,1.14-10.2,8.24-20.6,18.44-21.73"/><path class="cls-6" d="M547.88,1045.53l-4.8-6.79c-1.1-1.55-3.67-.07-2.57,1.5l4.8,6.79c1.09,1.55,3.67.07,2.57-1.5Z"/><path class="cls-2" d="M533.08,1035.83l17.68,2.22c7.7,1,15.48,2,22.75,4.67a3.57,3.57,0,0,1,2,1.37,2.56,2.56,0,0,1-1.21,3.25,7.39,7.39,0,0,1-3.74.65,329.08,329.08,0,0,1-46.92-3.67,14.37,14.37,0,0,1,4.82-7.79"/><path d="M453.76,834.54c3.87-5,10.77-6.17,17-7,5.63-.75,12.44-1,15.79,3.55,3,4.09,1.37,10.12-2,13.91s-8.07,6.06-12.25,8.93-8.16,6.85-8.67,11.9c-.34,3.35.91,6.76.25,10.07s-4.95,6.18-7.29,3.75a6,6,0,0,1-1.12-1.9l-4.84-11c-3.22-7.31-6.51-15.39-4.32-23.07,1.56-5.46,5.66-9.78,9.77-13.69"/><path class="cls-7" d="M456.74,874.67C469,871.08,481,879.78,492.15,886a99.8,99.8,0,0,0,36.77,11.84l10.74-27c1.15-2.89,2.42-5.93,4.9-7.8s6.6-1.95,8.3.66a117.13,117.13,0,0,1-11.12,43.85c-.82,1.72-1.8,3.55-3.52,4.37s-3.51.47-5.27.17l-33.91-6c-3.65,7.86-1.77,17-.78,25.62s.44,18.61-6.27,24.09c-7.63,6.23-18.9,3.4-28.24.26l-22.19-7.45c-4.55-1.53-9.33-3.21-12.4-6.9-2.81-3.38-3.72-7.9-4.54-12.22-2.52-13.25-5-27.36,0-39.91s20.36-22,32.25-15.57"/><path class="cls-4" d="M471.55,916.09c1.13-.86,3.13-.62,4.39.2a7.78,7.78,0,0,1,2.53,3.26c7.8,15.84,7.2,33.15,6.49,49.89-.24,5.75-.49,11.55-2.34,17.07-.57,1.7-1.63,3.61-3.82,3.92-2.61.36-4.74-1.79-5.9-3.73-4.73-7.9-5.21-16.82-5.6-25.44l-1.46-32c-.25-5.28,0-11.36,5.12-14.52l3.05,2.37"/><path class="cls-4" d="M478.27,919.54a422.53,422.53,0,0,0-57-32.25c-2.21-1-4.69-2.07-7-1.38-3.6,1.07-4.68,5.41-4.86,9-.47,9.36,1.1,18.7,2.66,28l5.19,30.77a16.28,16.28,0,0,0,1.95,6.23c1.38,2.13,3.67,3.55,5.88,4.88L471,992.57c2.73-4.27,2.81-9.58,2.8-14.59q-.06-31-.13-62.07l-1,4.14"/><path d="M79.39,928.57l11,37.72c.52,1.77.63,4.32-1.15,4.78a3.13,3.13,0,0,1-2.51-.78c-6.37-4.56-8.26-13-9.67-20.76l-2.35-12.86c-.31-1.73-.6-3.63.3-5.14s3.52-2,4.29-.38"/><path class="cls-2" d="M149.79,984.41l35.92-15.58c1.42-.62,3.06-1.71,2.38-2.83a3.19,3.19,0,0,0-1.57-1q-17.88-7.4-36.49-13.71c-1.66-.57-3.74-1.1-5.17-.24a3.31,3.31,0,0,0-1.37,2.84,83.3,83.3,0,0,0,1,22.56c.55,3,1.55,6.27,4.91,7.84"/><path class="cls-3" d="M163.73,946.86a100.58,100.58,0,0,1,39.49.72c3.45.76,7.16,1.91,9.12,4.85,1.26,1.88,1.59,4.21,1.88,6.45a619,619,0,0,1,5.11,78.39,64.81,64.81,0,0,0-16.57-2.84A190,190,0,0,0,196.37,975a10.34,10.34,0,0,0-2-4.42c-2.93-3.18-8.15-1.73-12.13,0L167,977c-5.44,2.3-11.13,4.64-17,4.26s-12-4.42-12.63-10.29c-.62-5.65,3.73-10.5,7.76-14.51,6.59-6.55,15.25-13.65,24.09-10.83"/><polygon points="210.85 948.07 157.19 949.38 146.8 934.23 156.32 930.61 210.85 948.07"/><path class="cls-8" d="M222.81,909.4l-58.16-21a1.37,1.37,0,0,0-1.8,1l-10,38.88a1.38,1.38,0,0,0,.91,1.66l55.35,17.77a1.37,1.37,0,0,0,1.72-.84l12.84-35.64A1.37,1.37,0,0,0,222.81,909.4Z"/><path class="cls-9" d="M139.24,887.32c7.8,1.73,13.25,8.67,17.47,15.46s8.19,14.25,15.06,18.34c6.68,4,14.9,4,22.67,4l24.72-.14a40.88,40.88,0,0,1-.59,10.3q-19.09,1.14-38.23,1.05c-6.21,0-12.64-.21-18.22-2.93l2.16,27.46c.45,5.7.55,12.3-3.76,16-5,4.35-12.71,2.19-18.82-.38a323.09,323.09,0,0,1-46.47-24.09c-3-1.85-6-3.86-7.8-6.85-2.25-3.74-2.23-8.38-2-12.74q.45-10.1,1.66-20.14c1-8.37,2.64-17.24,8.4-23.41,6.54-7,17.34-8.91,26.6-6.45,7.3,1.94,14,6.27,21.57,6.59"/><path class="cls-10" d="M144.31,1009.49l42.31-16.25c1.55-.6,3.21-1.27,4-2.44a4.78,4.78,0,0,0,.48-3.15L189.46,968a80.65,80.65,0,0,0-12.86,4.81l-24.25,10.68c-1.75.77-3.62,1.64-4.39,3-.68,1.23-.38,2.63-.15,4a29.82,29.82,0,0,1-3.45,19.43"/><path class="cls-4" d="M134.2,1010.23a283,283,0,0,0-20.39,53.57c-.48,1.82.23,4.79,2,4a2.6,2.6,0,0,0,1.15-1.49l12.51-29.2c3-7,6-14.08,7.68-21.53.48-2.15.73-4.7-.82-6.27s-5.14-.07-4.25,1.94"/><path class="cls-4" d="M79.1,979.36,60.66,1024.1a7.7,7.7,0,0,0-.85,4.45c.33,1.5,2,2.78,3.4,2.1a3.84,3.84,0,0,0,1.54-2l17.82-39.9a10.31,10.31,0,0,0,1.21-4.25A3.54,3.54,0,0,0,81.47,981c-1.44-.37-3.15,1.08-2.65,2.48"/><path class="cls-4" d="M182.86,993.71l11,37.72c.52,1.77.63,4.33-1.16,4.79a3.15,3.15,0,0,1-2.51-.78c-6.37-4.57-8.25-13.06-9.66-20.77l-2.35-12.86c-.32-1.72-.6-3.63.3-5.14s3.52-1.95,4.28-.37"/><path class="cls-4" d="M97.9,993a63.4,63.4,0,0,0,2.34,22.26,2.34,2.34,0,0,0,1,1.55c1.38.7,2.38-1.46,2.45-3l.89-20.84a4.79,4.79,0,0,0-.39-2.66c-1.1-1.89-4.25-1.29-5.42.54s-1,4.2-.74,6.36"/><path class="cls-4" d="M132.47,924.58c1.34-1,3.73-.74,5.23.24a9.13,9.13,0,0,1,3,3.89c9.31,18.9,8.6,39.56,7.75,59.55-.29,6.85-.59,13.78-2.79,20.36-.68,2-2,4.31-4.56,4.68-3.12.44-5.66-2.13-7-4.45-5.65-9.43-6.22-20.07-6.69-30.37l-1.74-38.12c-.29-6.3-.06-13.56,6.11-17.33l3.65,2.82"/><path class="cls-4" d="M140.49,928.7a503.85,503.85,0,0,0-68-38.5c-2.63-1.23-5.6-2.47-8.4-1.63-4.29,1.27-5.58,6.45-5.8,10.76-.56,11.18,1.31,22.33,3.18,33.37l6.19,36.73c.44,2.57.9,5.22,2.33,7.43,1.64,2.55,4.38,4.24,7,5.83l54.84,33.17c3.26-5.1,3.34-11.44,3.33-17.42q-.07-37-.14-74.08l-1.19,4.94"/><path class="cls-5" d="M139.77,843.42c5.64,2.61,9,8.74,9.82,14.89s-.61,12.38-2.37,18.33c-1.14,3.84-3.1,8.24-7.05,8.9-4.24.7-7.66-3.49-9.29-7.47a35.76,35.76,0,0,1,.3-27.57c1.12-2.55,2.64-5.08,5-6.51s5.84-1.39,7.67.72"/><path d="M219.9,1038.52q6.94-3.78,14.18-7c2.52-1.12,5.22-2.21,7.95-1.81s5.35,2.86,4.89,5.57c-.33,1.9-2,3.26-3.56,4.35-9.54,6.53-21.08,9.31-32.34,12a5.68,5.68,0,0,1-2.31.22c-1.92-.33-3-2.41-3.47-4.28a24.23,24.23,0,0,1,0-12.65l1.36,1.56"/><path class="cls-6" d="M125.35,831.74c8.25.06,15.62,7.86,15.21,16.09-.24,5-2.88,9.56-3.49,14.5-.57,4.66.67,9.33.88,14a63.41,63.41,0,0,1-.62,10.11c-.44,3.77-.9,7.63-2.57,11s-4.83,6.33-8.61,6.66c-2.61.23-5.16-.78-7.59-1.77l-24.69-10A9.14,9.14,0,0,1,90,889.9c-1.13-1.45-1.28-3.41-1.32-5.24a86,86,0,0,1,.68-12.73c.29-2.3.73-4.71,2.22-6.49,1.07-1.27,2.58-2.09,3.78-3.24,3-2.83,3.8-7.19,5.29-11a30.23,30.23,0,0,1,27.91-18.83"/><path d="M266.19,739.76l10.7,36.58c.5,1.72.61,4.19-1.12,4.64a3.05,3.05,0,0,1-2.43-.75c-6.18-4.43-8-12.66-9.37-20.14l-2.28-12.47c-.31-1.68-.59-3.52.28-5s3.42-1.9,4.16-.36"/><path class="cls-2" d="M334.46,793.91,369.3,778.8c1.37-.59,3-1.65,2.3-2.74a3.11,3.11,0,0,0-1.52-1q-17.34-7.17-35.38-13.3c-1.62-.55-3.64-1.06-5-.23a3.23,3.23,0,0,0-1.33,2.76,80.74,80.74,0,0,0,1,21.88c.52,2.87,1.49,6.07,4.76,7.6"/><path class="cls-3" d="M348,757.51a97.36,97.36,0,0,1,38.29.69c3.35.74,6.94,1.85,8.85,4.7a14.45,14.45,0,0,1,1.83,6.26,600.07,600.07,0,0,1,4.94,76,62.57,62.57,0,0,0-16.06-2.75,184,184,0,0,0-6.2-57.67,10,10,0,0,0-2-4.28c-2.84-3.09-7.9-1.68-11.76,0l-14.79,6.26c-5.27,2.23-10.79,4.5-16.5,4.13s-11.63-4.28-12.25-10c-.6-5.49,3.62-10.19,7.53-14.08,6.38-6.35,14.78-13.24,23.36-10.5"/><polygon points="393.67 758.67 341.64 759.95 331.56 745.26 340.8 741.74 393.67 758.67"/><path class="cls-11" d="M405.27,721.17l-56.39-20.38a1.33,1.33,0,0,0-1.75.92l-9.73,37.7a1.33,1.33,0,0,0,.88,1.61L392,758.26a1.34,1.34,0,0,0,1.67-.82l12.45-34.56A1.34,1.34,0,0,0,405.27,721.17Z"/><path class="cls-12" d="M324.23,699.76c7.57,1.68,12.85,8.41,16.94,15s7.94,13.82,14.6,17.79c6.48,3.86,14.45,3.92,22,3.88l24-.13a39.74,39.74,0,0,1-.57,10q-18.51,1.11-37.08,1c-6,0-12.26-.2-17.66-2.84l2.09,26.63c.44,5.52.53,11.92-3.64,15.56-4.85,4.22-12.33,2.12-18.26-.37a314.75,314.75,0,0,1-45.06-23.36c-2.87-1.8-5.81-3.74-7.56-6.64-2.19-3.62-2.16-8.12-2-12.35q.44-9.79,1.6-19.53c1-8.13,2.57-16.72,8.16-22.71,6.34-6.79,16.81-8.64,25.79-6.25,7.08,1.88,13.6,6.08,20.92,6.39"/><path class="cls-10" d="M329.15,818.24l41-15.76c1.51-.58,3.12-1.23,3.87-2.37a4.68,4.68,0,0,0,.46-3.05L372.93,778a78,78,0,0,0-12.47,4.66L337,793c-1.7.75-3.52,1.59-4.27,3-.65,1.2-.36,2.55-.14,3.84a28.89,28.89,0,0,1-3.35,18.84"/><path class="cls-4" d="M319.34,819a274.14,274.14,0,0,0-19.77,51.95c-.47,1.76.22,4.63,1.9,3.92a2.5,2.5,0,0,0,1.12-1.45l12.13-28.31c2.91-6.81,5.84-13.66,7.44-20.88.47-2.08.71-4.56-.79-6.08s-5-.07-4.12,1.88"/><path class="cls-4" d="M260.2,789.6l-20.81,50.51c-.66,1.6-1.34,3.33-1,5s2.29,3.14,3.84,2.37a4.32,4.32,0,0,0,1.74-2.3q10.06-22.53,20.12-45a11.75,11.75,0,0,0,1.36-4.8,4,4,0,0,0-2.61-3.88c-1.62-.42-3.56,1.22-3,2.8"/><path class="cls-4" d="M366.53,802.94l10.71,36.58c.5,1.71.6,4.19-1.12,4.64a3.08,3.08,0,0,1-2.44-.76c-6.18-4.43-8-12.66-9.37-20.14L362,810.79c-.31-1.67-.58-3.52.29-5s3.41-1.9,4.16-.37"/><path class="cls-4" d="M284.14,802.27a61.48,61.48,0,0,0,2.27,21.59,2.25,2.25,0,0,0,.94,1.5c1.34.68,2.31-1.42,2.38-2.92l.86-20.21a4.65,4.65,0,0,0-.38-2.59c-1.06-1.82-4.12-1.24-5.26.53s-.95,4.07-.72,6.17"/><path class="cls-4" d="M317.66,735.9c1.31-1,3.62-.72,5.08.23a8.94,8.94,0,0,1,2.93,3.77c9,18.33,8.34,38.36,7.52,57.74-.29,6.66-.58,13.37-2.71,19.75-.66,2-1.89,4.19-4.43,4.54-3,.42-5.48-2.07-6.83-4.31-5.47-9.15-6-19.47-6.48-29.45l-1.69-37c-.28-6.11-.05-13.15,5.93-16.81l3.53,2.74"/><path class="cls-4" d="M325.44,739.89a488.43,488.43,0,0,0-65.95-37.33c-2.55-1.2-5.43-2.4-8.14-1.59-4.17,1.24-5.42,6.26-5.63,10.44-.54,10.84,1.27,21.65,3.08,32.36l6,35.62a18.77,18.77,0,0,0,2.25,7.2c1.6,2.48,4.25,4.11,6.81,5.66l53.18,32.16c3.16-4.94,3.25-11.09,3.23-16.89q-.06-35.91-.14-71.84L319,740.47"/><path class="cls-5" d="M324.75,657.19c5.46,2.53,8.74,8.47,9.52,14.44s-.6,12-2.3,17.78c-1.1,3.72-3,8-6.84,8.62-4.11.68-7.42-3.38-9-7.24a34.65,34.65,0,0,1,.3-26.73c1.08-2.48,2.56-4.93,4.88-6.31s5.66-1.35,7.44.69"/><path d="M402.45,846.39q6.74-3.67,13.75-6.8c2.45-1.08,5.07-2.14,7.71-1.76s5.19,2.78,4.74,5.41c-.32,1.84-1.91,3.16-3.45,4.21-9.25,6.34-20.45,9-31.36,11.61a5.71,5.71,0,0,1-2.24.22c-1.86-.33-2.87-2.34-3.37-4.16a23.39,23.39,0,0,1,0-12.26l1.33,1.51"/><path class="cls-6" d="M310.76,645.86c8,.06,15.15,7.62,14.75,15.61-.23,4.83-2.79,9.26-3.38,14.06-.56,4.52.65,9.05.85,13.6a61.94,61.94,0,0,1-.6,9.8c-.43,3.66-.87,7.39-2.49,10.7s-4.69,6.14-8.35,6.46c-2.54.22-5-.76-7.37-1.72l-23.94-9.73a8.76,8.76,0,0,1-3.79-2.38c-1.1-1.4-1.24-3.3-1.27-5.07a83.52,83.52,0,0,1,.65-12.35c.28-2.23.71-4.57,2.15-6.29a40.77,40.77,0,0,1,3.67-3.14c2.91-2.75,3.69-7,5.13-10.71a29.29,29.29,0,0,1,27.06-18.26"/><path d="M878.89,925.89l-11.25,38.45c-.53,1.8-.64,4.4,1.18,4.87a3.19,3.19,0,0,0,2.56-.79c6.49-4.66,8.41-13.31,9.84-21.16l2.4-13.11c.32-1.76.61-3.7-.3-5.24s-3.59-2-4.37-.39"/><path class="cls-2" d="M807.13,982.8l-36.61-15.88c-1.44-.62-3.11-1.73-2.42-2.88a3.33,3.33,0,0,1,1.59-1q18.24-7.53,37.2-14c1.69-.57,3.81-1.11,5.27-.24a3.42,3.42,0,0,1,1.4,2.9,85.26,85.26,0,0,1-1,23c-.55,3-1.58,6.39-5,8"/><path class="cls-3" d="M792.92,944.54a102.47,102.47,0,0,0-40.24.73c-3.52.78-7.3,2-9.3,4.94-1.28,1.92-1.62,4.29-1.92,6.58a631.28,631.28,0,0,0-5.2,79.89,66.29,66.29,0,0,1,16.89-2.9,193.6,193.6,0,0,1,6.51-60.6,10.58,10.58,0,0,1,2.06-4.51c3-3.25,8.3-1.76,12.36,0l15.55,6.58c5.54,2.34,11.33,4.74,17.34,4.34s12.22-4.5,12.88-10.48c.63-5.76-3.81-10.71-7.92-14.79-6.71-6.68-15.54-13.92-24.55-11"/><polygon points="744.9 945.76 799.59 947.11 810.18 931.67 800.48 927.97 744.9 945.76"/><path class="cls-13" d="M732.71,906.35,792,884.93a1.41,1.41,0,0,1,1.84,1l10.23,39.63a1.41,1.41,0,0,1-.93,1.69L746.7,945.33a1.4,1.4,0,0,1-1.75-.86l-13.09-36.32A1.41,1.41,0,0,1,732.71,906.35Z"/><path class="cls-14" d="M817.89,883.85c-8,1.77-13.51,8.83-17.81,15.76s-8.35,14.52-15.35,18.69c-6.81,4.05-15.18,4.12-23.11,4.08l-25.18-.14a41.45,41.45,0,0,0,.59,10.49q19.47,1.17,39,1.08c6.33,0,12.88-.22,18.57-3l-2.2,28c-.46,5.8-.56,12.53,3.83,16.35,5.1,4.44,12.95,2.23,19.18-.39a329.87,329.87,0,0,0,47.36-24.55c3-1.89,6.11-3.93,8-7,2.3-3.81,2.27-8.54,2.07-13q-.46-10.29-1.69-20.53c-1-8.53-2.7-17.57-8.56-23.86-6.67-7.14-17.68-9.08-27.12-6.57-7.43,2-14.29,6.39-22,6.71"/><path class="cls-4" d="M812.72,1008.37,769.6,991.81c-1.59-.61-3.27-1.3-4.06-2.49a4.9,4.9,0,0,1-.49-3.21l1.65-20a82.44,82.44,0,0,1,13.11,4.9l24.71,10.89c1.79.79,3.69,1.67,4.48,3.11.69,1.26.38,2.68.15,4a30.36,30.36,0,0,0,3.52,19.8"/><path class="cls-4" d="M823,1009.12a288.28,288.28,0,0,1,20.77,54.6c.5,1.86-.23,4.88-2,4.12a2.63,2.63,0,0,1-1.17-1.52l-12.75-29.76c-3.06-7.14-6.14-14.34-7.82-21.94-.49-2.19-.75-4.79.83-6.38s5.24-.08,4.33,2"/><path class="cls-4" d="M885.18,978.28l21.88,53.08c.69,1.68,1.4,3.49,1,5.27s-2.4,3.31-4,2.49a4.55,4.55,0,0,1-1.83-2.42l-21.15-47.33a12.13,12.13,0,0,1-1.42-5,4.17,4.17,0,0,1,2.74-4.08c1.7-.44,3.73,1.29,3.13,3"/><path class="cls-4" d="M773.42,992.29l-11.24,38.44c-.53,1.81-.64,4.41,1.17,4.88a3.22,3.22,0,0,0,2.56-.8c6.5-4.65,8.41-13.3,9.85-21.16l2.4-13.11c.32-1.76.61-3.7-.3-5.24s-3.59-2-4.37-.38"/><path class="cls-4" d="M860,991.59a64.66,64.66,0,0,1-2.38,22.69,2.41,2.41,0,0,1-1,1.58c-1.41.71-2.43-1.49-2.5-3.08l-.91-21.23a5,5,0,0,1,.4-2.73c1.12-1.91,4.33-1.3,5.53.56s1,4.28.75,6.48"/><path class="cls-4" d="M824.79,921.83c-1.37-1.05-3.81-.76-5.34.25a9.27,9.27,0,0,0-3.08,4c-9.48,19.26-8.76,40.31-7.9,60.69.3,7,.61,14,2.85,20.75.69,2.07,2,4.4,4.65,4.77,3.18.45,5.77-2.17,7.18-4.53,5.75-9.62,6.33-20.46,6.81-31l1.78-38.86c.3-6.42,0-13.82-6.23-17.66l-3.72,2.88"/><path class="cls-4" d="M816.61,926a513.22,513.22,0,0,1,69.32-39.24c2.68-1.26,5.71-2.52,8.56-1.67,4.37,1.3,5.69,6.58,5.91,11,.57,11.39-1.34,22.75-3.24,34l-6.31,37.43c-.45,2.62-.92,5.32-2.37,7.57-1.68,2.6-4.46,4.32-7.16,5.95l-55.89,33.8c-3.32-5.2-3.41-11.66-3.4-17.75l.15-75.51,1.21,5"/><path class="cls-5" d="M817.34,839.11c-5.74,2.66-9.19,8.9-10,15.18S808,866.9,809.76,873c1.15,3.91,3.15,8.4,7.18,9.07,4.32.71,7.8-3.56,9.47-7.61a36.46,36.46,0,0,0-.31-28.1c-1.14-2.61-2.69-5.18-5.13-6.64s-6-1.41-7.82.73"/><path d="M735.67,1038c-4.71-2.58-9.54-5-14.45-7.15-2.56-1.14-5.32-2.25-8.1-1.85s-5.45,2.92-5,5.69c.34,1.93,2,3.32,3.62,4.43,9.73,6.65,21.5,9.48,33,12.19a5.73,5.73,0,0,0,2.36.23c1.95-.34,3-2.45,3.53-4.37a24.68,24.68,0,0,0,0-12.88l-1.39,1.58"/><path class="cls-6" d="M832,827.2c-8.41.06-15.92,8-15.5,16.41.25,5.07,2.93,9.73,3.56,14.77.58,4.75-.69,9.51-.9,14.29a64.67,64.67,0,0,0,.63,10.31c.45,3.84.92,7.77,2.62,11.24s4.92,6.45,8.78,6.79c2.66.23,5.26-.8,7.74-1.8L864.13,889a9.15,9.15,0,0,0,4-2.49c1.15-1.47,1.29-3.47,1.33-5.34a87.88,87.88,0,0,0-.68-13c-.3-2.35-.75-4.8-2.27-6.61-1.09-1.3-2.62-2.14-3.86-3.31-3-2.88-3.87-7.33-5.38-11.25a30.8,30.8,0,0,0-28.45-19.19"/><path class="cls-15" d="M212.42,170.08H838.88a8.37,8.37,0,0,1,8.37,8.37V579.87a7.8,7.8,0,0,1-7.8,7.8H207.22a5.09,5.09,0,0,1-5.09-5.09V180.38a10.29,10.29,0,0,1,10.29-10.29Z" transform="translate(1049.39 757.76) rotate(-180)"/><rect class="cls-16" x="240.86" y="223.32" width="375.69" height="8.2" transform="translate(857.4 454.84) rotate(-180)"/><rect class="cls-16" x="240.86" y="241.22" width="375.69" height="8.2" transform="translate(857.4 490.64) rotate(-180)"/><rect class="cls-16" x="240.86" y="259.12" width="375.69" height="8.2" transform="translate(857.4 526.43) rotate(-180)"/><rect class="cls-16" x="240.86" y="341.61" width="375.69" height="8.2" transform="translate(857.4 691.42) rotate(-180)"/><rect class="cls-16" x="240.86" y="357.76" width="375.69" height="8.2" transform="translate(857.4 723.71) rotate(-180)"/><rect class="cls-16" x="240.86" y="374.78" width="375.69" height="8.2" transform="translate(857.4 757.76) rotate(-180)"/><rect class="cls-16" x="240.86" y="466.44" width="375.69" height="8.2" transform="translate(857.4 941.07) rotate(-180)"/><rect class="cls-16" x="240.86" y="482.59" width="375.69" height="8.2" transform="translate(857.4 973.37) rotate(-180)"/><rect class="cls-16" x="240.86" y="499.61" width="375.69" height="8.2" transform="translate(857.4 1007.42) rotate(-180)"/><path class="cls-17" d="M792.17,251a55.86,55.86,0,0,1-28.07,48.4,54.17,54.17,0,0,1-9.49,4.3,55.68,55.68,0,0,1-48.92-6.15,50.38,50.38,0,0,1-4.27-3.14,48.64,48.64,0,0,1-4.6-4.12,56.37,56.37,0,0,1-7.89-10,24.43,24.43,0,0,1-1.25-2.17A55.76,55.76,0,1,1,792.17,251Z"/><path class="cls-18" d="M691,279.45c-.05,0-.08,0-.13,0a1.83,1.83,0,0,0-.35-.33Z"/><path class="cls-18" d="M697.92,289.17a2.27,2.27,0,0,1-.87.95l-.23.15a56.37,56.37,0,0,1-7.89-10,6,6,0,0,1,1.92-.77,36.9,36.9,0,0,1,6.6,7.74A2.27,2.27,0,0,1,697.92,289.17Z"/><path class="cls-9" d="M771.42,264.07a13.72,13.72,0,0,0-3.62-4.57,16.8,16.8,0,0,0-4.37-2.05,66.07,66.07,0,0,1-10.34-4.82,15.23,15.23,0,0,0-3.52-1.65,4.25,4.25,0,0,0-.6-.12,15,15,0,0,0-4.57.32,24.29,24.29,0,0,1-3.62.25,13,13,0,0,1-1.4-.07,23,23,0,0,1-6.77-1.33c-.92.3-1.77.53-2.6.73-1.92.47-3.67.8-5.87,1.5-2.69.84-5.54,1.37-8.91,2.67a22.63,22.63,0,0,0-9.17,7.39c-6.17,9.34-12.51,13.94-18.38,15.76a24.43,24.43,0,0,0,1.25,2.17,56.37,56.37,0,0,0,7.89,10,48.64,48.64,0,0,0,4.6,4.12c1.32-1.25,2.94-2.8,5.27-4.7a20.27,20.27,0,0,1-1,7.84,55.68,55.68,0,0,0,48.92,6.15,54.17,54.17,0,0,0,9.49-4.3,55.49,55.49,0,0,0,16.61-14.56C778.94,274.43,774,268.66,771.42,264.07ZM744.5,287.89c.4-.05.6,0,.62.1C744.92,288,744.7,287.92,744.5,287.89Z"/><path class="cls-18" d="M744.87,289a50.62,50.62,0,0,1-10-5.59,5.73,5.73,0,0,0,1,4c-1.69.28-3.21-.92-4.78-1.58s-4-.35-4.2,1.34a3.47,3.47,0,0,0,1.25,2.55c1.62,1.76,3.34,3.59,5.6,4.35,2.08.71,4.37.43,6.48,1a20.65,20.65,0,0,1,3.8,1.66Z"/><path class="cls-18" d="M725.75,217.71a29.88,29.88,0,0,0-1.84,11.12,22.15,22.15,0,0,0,4.1,12.81,14.73,14.73,0,0,0,11.7,6.06,12.37,12.37,0,0,0,11.72-15.43,4.22,4.22,0,0,0,2.94-7.7,18.28,18.28,0,0,1-2.51-1.46c-2.25-2.08-.27-6.43-2.42-8.61-1.78-1.79-4.75-.72-7.21-.14-2.87.67-5.87.47-8.82.67s-6,.91-8.12,3Z"/><path class="cls-19" d="M746.6,207.94c-2-6-8.07-6.13-14.41-6.11s-8.77,2.1-13.73,6c-.92.74-3.28.47-3.15,1.64.21,1.83.07,1.08.83,2.76.59,1.31-.15,2.82-.14,4.27a8.24,8.24,0,0,0,.82,3l6.43,15.54c.53,1.31,1.34,2.81,2.75,2.91a29.68,29.68,0,0,1,0-17.53,1.38,1.38,0,0,1,.48-.79,1.41,1.41,0,0,1,.79-.12,47.51,47.51,0,0,0,18.63-3,10.76,10.76,0,0,0,5.5,9.17l2.3-1.35c.9,1.29,1.84,2.88,1.26,4.34-.43,1.08-2.46,2.34-3.29,3.16-1.67,1.65-1.21,3.77-.14,5.86a18,18,0,0,0-5.06-31.59Z"/><path class="cls-20" d="M733,247.53a8.19,8.19,0,0,0-2.76,2.49,1,1,0,0,0-.26.75,1,1,0,0,0,.55.62c3.53,2.06,4.32,2.83,8.12,4.16-.19-1.67,2.38-2,2.19-3.71a1.52,1.52,0,0,0-.12-.52,1.16,1.16,0,0,0-.92-.51l-2.92-.55a7.17,7.17,0,0,1-2.34-.73,3,3,0,0,1-1.5-2.07Z"/><path class="cls-20" d="M746.73,247.77a8,8,0,0,1,2.64,2.37,1,1,0,0,1,.25.73,1,1,0,0,1-.53.58c-3.37,2-3.45,2.59-7.07,3.86.18-1.6-2.95-1.83-2.77-3.43a1.59,1.59,0,0,1,.11-.49,1.14,1.14,0,0,1,.88-.49l2.79-.53a6.8,6.8,0,0,0,2.23-.69,2.82,2.82,0,0,0,1.43-2Z"/><circle class="cls-20" cx="739.91" cy="258.62" r="1.24"/><circle class="cls-20" cx="739.91" cy="268.98" r="1.24"/><circle class="cls-20" cx="739.91" cy="279.35" r="1.24"/><path class="cls-21" d="M1072.71,772.29,812.05,989.92,216.38,684.72l469.89-412s1.67,7.81,15.15,21.71c8.54,8.8,33.82,20.88,63.82,5.12,12.64-6.65,20.65-20.36,20.65-20.36Z"/><circle class="cls-22" cx="736.4" cy="369.81" r="56.87"/><circle class="cls-23" cx="736.4" cy="488.64" r="55.62"/><path class="cls-24" d="M771.33,501.69a13.75,13.75,0,0,0-3.61-4.56,16.88,16.88,0,0,0-4.36-2,66.62,66.62,0,0,1-10.31-4.81,14.9,14.9,0,0,0-3.51-1.64c-.2-.05-.4-.1-.6-.13a14.94,14.94,0,0,0-4.56.32,24.16,24.16,0,0,1-3.61.25,13.13,13.13,0,0,1-1.4-.07,23.3,23.3,0,0,1-6.75-1.32c-.92.3-1.77.52-2.59.72-1.92.47-3.66.8-5.85,1.5-2.69.84-5.53,1.37-8.9,2.66a22.6,22.6,0,0,0-9.14,7.38c-6.15,9.31-12.48,13.9-18.33,15.71a22.11,22.11,0,0,0,1.24,2.17,55.25,55.25,0,0,0,7.87,10,48.27,48.27,0,0,0,4.59,4.11c1.32-1.24,2.94-2.79,5.25-4.68a20.19,20.19,0,0,1-1,7.82,55.58,55.58,0,0,0,48.8,6.13,53.22,53.22,0,0,0,9.47-4.29,55.31,55.31,0,0,0,16.56-14.52C778.83,512,773.9,506.27,771.33,501.69Zm-26.85,23.77c.4-.05.6,0,.62.09Z"/><path class="cls-18" d="M744.85,526.52a51.33,51.33,0,0,1-10-5.57,5.71,5.71,0,0,0,1,4c-1.68.27-3.19-.92-4.76-1.58s-4-.35-4.19,1.34a3.4,3.4,0,0,0,1.24,2.54c1.62,1.75,3.33,3.58,5.59,4.34,2.07.7,4.35.42,6.46,1a19.6,19.6,0,0,1,3.79,1.65Z"/><path class="cls-18" d="M725.78,455.45a29.72,29.72,0,0,0-1.84,11.09,22.1,22.1,0,0,0,4.1,12.78,14.66,14.66,0,0,0,11.67,6A12.34,12.34,0,0,0,751.39,470a4.22,4.22,0,0,0,2.94-7.68,18.28,18.28,0,0,1-2.51-1.46c-2.24-2.08-.27-6.41-2.41-8.58-1.77-1.8-4.74-.72-7.19-.15-2.87.67-5.86.47-8.8.67s-6,.91-8.11,3Z"/><path class="cls-19" d="M746.58,445.7c-2-6-8.05-6.12-14.37-6.09s-8.76,2.09-13.7,6c-.92.74-3.27.47-3.14,1.64.2,1.82.07,1.08.82,2.75.59,1.31-.14,2.82-.13,4.26a8.08,8.08,0,0,0,.81,3l6.41,15.5c.54,1.3,1.34,2.8,2.74,2.9a29.63,29.63,0,0,1,0-17.49,1.33,1.33,0,0,1,.48-.79,1.41,1.41,0,0,1,.79-.12,47.27,47.27,0,0,0,18.58-3,10.74,10.74,0,0,0,5.48,9.15l2.3-1.34c.89,1.29,1.83,2.87,1.25,4.33-.42,1.08-2.45,2.33-3.28,3.15-1.66,1.65-1.2,3.76-.13,5.85A17.92,17.92,0,0,0,746.4,444Z"/><path class="cls-25" d="M733,485.2a8.19,8.19,0,0,0-2.75,2.47,1,1,0,0,0-.26.76,1,1,0,0,0,.55.61c3.52,2.06,4.31,2.83,8.09,4.15-.19-1.67,2.38-2,2.19-3.7a1.41,1.41,0,0,0-.12-.51,1.2,1.2,0,0,0-.92-.52l-2.91-.54a7.36,7.36,0,0,1-2.33-.73,3,3,0,0,1-1.5-2.06Z"/><path class="cls-25" d="M746.71,485.43a7.92,7.92,0,0,1,2.63,2.37,1.07,1.07,0,0,1,.25.72,1,1,0,0,1-.53.58c-3.36,2-3.44,2.58-7,3.85.18-1.59-3-1.82-2.77-3.42a1.36,1.36,0,0,1,.12-.49,1.15,1.15,0,0,1,.87-.49L743,488a6.73,6.73,0,0,0,2.23-.69,2.87,2.87,0,0,0,1.43-2Z"/><circle class="cls-20" cx="739.91" cy="496.25" r="1.23"/><circle class="cls-20" cx="739.91" cy="506.59" r="1.23"/><circle class="cls-20" cx="739.91" cy="516.93" r="1.23"/><path class="cls-7" d="M772.12,383.15a14.18,14.18,0,0,0-3.7-4.66A17.61,17.61,0,0,0,764,376.4a67,67,0,0,1-10.55-4.91,15.41,15.41,0,0,0-3.59-1.68c-.2-.05-.41-.1-.61-.13a15.28,15.28,0,0,0-4.66.33,25.24,25.24,0,0,1-3.69.26,13.55,13.55,0,0,1-1.43-.08,23.6,23.6,0,0,1-6.9-1.35c-.95.31-1.81.53-2.65.74-2,.48-3.75.81-6,1.53-2.75.86-5.65,1.4-9.09,2.72a23.16,23.16,0,0,0-9.35,7.54c-6.29,9.53-12.76,14.21-18.74,16.07a23.15,23.15,0,0,0,1.27,2.22,56.48,56.48,0,0,0,8,10.21,49.15,49.15,0,0,0,4.69,4.2c1.35-1.27,3-2.85,5.37-4.78a20.47,20.47,0,0,1-1,8,56.6,56.6,0,0,0,31.33,9.4A56,56,0,0,0,755,423.55a55.15,55.15,0,0,0,9.67-4.38,56.65,56.65,0,0,0,16.94-14.85C779.78,393.72,774.74,387.84,772.12,383.15Zm-27.46,24.3c.41-.05.61,0,.64.1C745.09,407.53,744.86,407.48,744.66,407.45Z"/><path class="cls-20" d="M746.94,366.53a8.15,8.15,0,0,1,2.69,2.42,1,1,0,0,1,.25.74,1,1,0,0,1-.54.6c-3.44,2-3.51,2.63-7.21,3.93.19-1.63-3-1.87-2.82-3.5a1.65,1.65,0,0,1,.11-.5,1.19,1.19,0,0,1,.9-.5l2.84-.53a7,7,0,0,0,2.28-.71,2.93,2.93,0,0,0,1.46-2Z"/><circle class="cls-20" cx="739.99" cy="377.59" r="1.26"/><circle class="cls-20" cx="739.99" cy="388.16" r="1.26"/><circle class="cls-20" cx="739.99" cy="398.74" r="1.26"/><path class="cls-19" d="M731.22,321.94c-6.25-.68-13.84,8.1-16.77,14s.82,8.29-.2,22.53c-.59,8.41-3.85,6.87-7.51,10.37-3.47,3.33-4.32,9.23-6.47,13.33-1.36,2.57-1.88,6.51,0,8.55,2.63,2.86,9.08,1,12.82-1,3.49-1.87,4.08-3.6,12.24-13.8,5.72-7.16,7.9-9.39,7.63-9.66s-2.21,1.76-2.81,2.53a1,1,0,0,0-.27.78,1.07,1.07,0,0,0,.57.62c1.67.94,3.27,2,5,2.9,2.12,1.09,2.69,1.67,3.3,1.35s.25-.72,1.12-1.9c.54-.72,1.11-1.17,1.12-1.89a.94.94,0,0,0-.12-.52,1.35,1.35,0,0,0-.94-.53c-1.49-.29-2.23-.43-3-.56a5.76,5.76,0,0,1-2.39-.74,4.25,4.25,0,0,1-1.52-2.11c-1.34-3.33-3.28-5.5-4.19-8.14-1.31-3.81-3.75-15.27,2.72-20.39,4.15-3.28,9.77-2.25,10.3-2.14a11.9,11.9,0,0,1,6.8,3.69c3.73,4.32,2.54,10.38,2.14,12.43-.87,4.4-2.56,4.9-3.11,8.16-.75,4.42.86,10.63,5.44,13.79,6.27,4.35,19.93,17.59,24.47,13.28.81-.76,5.25-9,4-14.31-1.12-4.79-10.2-17.68-14.69-24.22-3.17-4.62-1.48-6.41-5.63-13.21-2.33-3.8-4.09-6.69-7.19-7.38-3.94-.88-4.39-6.1-9.49-5.83C738.86,322.25,736.81,322.55,731.22,321.94Z"/><path class="cls-18" d="M728,340.86c-1.34,3.61-4.42,2.5-4.32,6.35a22.63,22.63,0,0,0,4.19,13.07,15,15,0,0,0,11.93,6.18,12.62,12.62,0,0,0,12-15.73,4.31,4.31,0,0,0,3-7.86,17.47,17.47,0,0,1-2.56-1.49c-2.29-2.12-.28-6.55-2.47-8.78-1.81-1.83-4.84-.73-7.35-.14-2.93.68-1.51-1-3.85.89-2.55,2.07-6.9,2.85-9,5Z"/></svg>