<svg height="480pt" viewBox="0 0 480 480" width="480pt" xmlns="http://www.w3.org/2000/svg" xmlns:xlink="http://www.w3.org/1999/xlink"><linearGradient id="a"><stop offset="0" stop-color="#663273"/><stop offset="0" stop-color="#005c94"/><stop offset=".0490947" stop-color="#0978ab"/><stop offset=".12518" stop-color="#159cc9"/><stop offset=".201574" stop-color="#1eb9e1"/><stop offset=".277411" stop-color="#25cef2"/><stop offset=".352433" stop-color="#29dafc"/><stop offset=".425743" stop-color="#2adeff"/><stop offset=".480481" stop-color="#30d7fe"/><stop offset=".563" stop-color="#42c2fc"/><stop offset=".663031" stop-color="#5fa0f9"/><stop offset=".776765" stop-color="#8771f4"/><stop offset=".900362" stop-color="#ba35ee"/><stop offset="1" stop-color="#e800e9"/></linearGradient><linearGradient id="b" gradientUnits="userSpaceOnUse" x1="2.333336" x2="423.877592" xlink:href="#a" y1="48.202477" y2="469.746733"/><linearGradient id="c" gradientUnits="userSpaceOnUse" x1="-66.666672" x2="354.877592" xlink:href="#a" y1="117.202469" y2="538.746701"/><linearGradient id="d" gradientUnits="userSpaceOnUse" x1="-82.666664" x2="338.877592" xlink:href="#a" y1="133.202469" y2="554.746701"/><linearGradient id="e" gradientUnits="userSpaceOnUse" x1="-98.666664" x2="322.877592" xlink:href="#a" y1="149.202469" y2="570.746701"/><path d="m472 123.871094c-42.125 0-76.75 32.726562-79.78125 74.089844-5.28125-1.378907-10.75-2.089844-16.21875-2.089844-26.554688 0-49.617188 16.035156-59.1875 39.660156-11.671875-7.972656-27.65625-9.824219-40.835938-4.660156l-16.65625-47h4.679688c2.570312 0 4.984375-1.234375 6.492188-3.324219 1.5-2.085937 1.914062-4.765625 1.09375-7.207031l-4.484376-13.46875h4.898438c3.382812 0 6.40625-2.132813 7.539062-5.320313.238282-.675781.34375-1.308593.558594-1.976562 13.902344 2.3125 26.148438 10.558593 33.519532 22.84375l7.523437 12.558593c1.46875 2.460938 4.101563 3.894532 6.859375 3.894532.710938 0 1.421875-.097656 2.132812-.289063 3.46875-.960937 5.867188-4.113281 5.867188-7.710937v-24c0-29.714844-20.511719-55.195313-48.75-62.085938.011719-.691406.03125-1.453125.03125-2.078125 0-29.628906-10.757812-58.234375-30.296875-80.542969l-10.960937-12.558593c-3.03125-3.472657-9.015626-3.472657-12.046876 0l-10.953124 12.542969c-20.117188 22.929687-30.738282 52.199218-30.195313 82.617187-28.277344 6.855469-48.828125 32.355469-48.828125 62.105469v24c0 3.597656 2.398438 6.75 5.867188 7.710937.710937.195313 1.421874.289063 2.132812.289063 2.757812 0 5.390625-1.433594 6.859375-3.890625l7.523437-12.554688c7.367188-12.28125 19.597657-20.519531 33.484376-22.84375.21875.679688.414062 1.480469.640624 2.089844 1.171876 3.128906 4.15625 5.199219 7.492188 5.199219h4.898438l-4.484376 13.46875c-.820312 2.441406-.40625 5.121094 1.09375 7.207031 1.507813 2.089844 3.921876 3.324219 6.492188 3.324219h4.679688l-16.65625 47c-13.171876-5.164063-29.164063-3.308594-40.835938 4.660156-9.570312-23.625-32.632812-39.660156-59.1875-39.660156-5.46875 0-10.9375.710937-16.21875 2.089844-3.03125-41.363282-37.65625-74.089844-79.78125-74.089844-4.421875 0-8 3.582031-8 8v308c0 4.417968 3.578125 8 8 8h268.6875l29.65625 29.65625c1.5 1.5 3.53125 2.34375 5.65625 2.34375h128c4.421875 0 8-3.582032 8-8v-24h24c4.421875 0 8-3.582032 8-8v-308c0-4.417969-3.578125-8-8-8zm-32 236h-88v-32c0-6.488282-2.53125-12.535156-6.984375-16.863282-4.484375-4.601562-10.523437-7.136718-17.015625-7.136718-13.234375 0-24 10.765625-24 24v64h-24c-4.421875 0-8 3.582031-8 8-2.441406 0-4.839844.273437-7.203125.703125-.75.136719-1.464844.367187-2.203125.546875-1.605469.390625-3.1875.84375-4.730469 1.433594-.8125.308593-1.597656.65625-2.390625 1.019531-1.441406.65625-2.832031 1.40625-4.195312 2.238281-.738282.449219-1.472656.878906-2.183594 1.378906-.355469.246094-.746094.429688-1.09375.691406v-104.011718c0-13.234375 10.765625-24 24-24h192v120h-16v-32c0-4.417969-3.578125-8-8-8zm-168 72h-22.539062c.0625-.175782.09375-.359375.160156-.527344.390625-1.03125.90625-2.003906 1.433594-2.972656.273437-.496094.488281-1.015625.792968-1.488282.90625-1.40625 1.933594-2.742187 3.128906-3.957031 4.617188-4.546875 10.664063-7.054687 17.023438-7.054687zm-46.082031-25.949219c-1.480469-.785156-3.046875-1.40625-4.613281-2.046875-1.027344-.417969-2.011719-.90625-3.070313-1.257812-1.78125-.59375-3.636719-.984376-5.492187-1.386719-.929688-.203125-1.820313-.5-2.765626-.652344-2.828124-.453125-5.714843-.707031-8.640624-.707031h-185.335938v-120h185.335938c16.90625 0 30.664062 10.765625 30.664062 24v105.804687c-.976562-.726562-2.078125-1.273437-3.113281-1.921875-.988281-.621094-1.933594-1.28125-2.96875-1.832031zm12.660156-126.050781h1.625c-.25.328125-.550781.617187-.789063.957031-.269531-.328125-.554687-.640625-.835937-.957031zm81.34375-122.710938c-9.484375-10.535156-22.164063-17.640625-36.179687-20.199218.019531-.125.035156-.261719.054687-.386719.570313-3.507813 1.070313-7.140625 1.492187-10.78125.019532-.160157.042969-.3125.0625-.472657.429688-3.753906.789063-7.488281 1.070313-11.035156.003906-.058594.011719-.121094.015625-.175781 18.78125 5.890625 32.359375 22.984375 33.484375 43.050781zm-84.859375-131.46875 4.9375-5.652344 4.945312 5.660157c5.933594 6.777343 10.875 14.253906 14.871094 22.171875h-39.632812c4-7.902344 8.914062-15.382813 14.878906-22.179688zm-74.984375 131.46875c1.125-20.074218 14.703125-37.160156 33.484375-43.054687.578125 7.308593 1.46875 15.425781 2.695312 22.851562-14.007812 2.5625-26.695312 9.667969-36.179687 20.203125zm53.882813-13.289062c-.273438-1.132813-.523438-2.410156-.777344-3.671875-.191406-.914063-.363282-1.894531-.539063-2.855469-2.210937-12.453125-3.558593-29.03125-3.855469-37.839844-.441406-12.230468 1.3125-24.230468 4.890626-35.632812h52.609374c3.222657 10.230468 4.992188 20.941406 4.992188 31.839844 0 2.289062-.078125 5.113281-.234375 8.261718-.515625 11.023438-2 26.84375-4.632813 38.328125-.109374.527344-.226562 1.046875-.359374 1.570313h-10.054688c-2.570312 0-4.984375 1.234375-6.492188 3.324218-1.5 2.085938-1.914062 4.761719-1.09375 7.203126l4.484376 13.472656h-25.796876l4.484376-13.472656c.820312-2.441407.40625-5.117188-1.09375-7.203126-1.507813-2.089843-3.921876-3.324218-6.492188-3.324218zm-197.960938-3.503906c31.523438 3.953124 56 30.925781 56 63.503906 0 1.601562-.070312 3.207031-.210938 4.808594-.257812 2.871093 1.046876 5.65625 3.421876 7.292968 2.367187 1.632813 5.429687 1.878906 8.03125.621094 6.476562-3.132812 13.460937-4.722656 20.757812-4.722656 23.523438 0 43.390625 16.765625 47.226562 39.871094.523438 3.175781 2.90625 5.726562 6.039063 6.46875 3.140625.742187 6.40625-.464844 8.3125-3.066407 5.15625-7.058593 13.539063-11.273437 22.421875-11.273437 5.757812 0 11.257812 1.714844 15.890625 4.957031 2.0625 1.429687 4.648437 1.828125 7.03125 1.058594 2.375-.761719 4.257813-2.59375 5.09375-4.949219l21.640625-61.066406h4.6875l21.640625 61.070312c.835937 2.355469 2.71875 4.183594 5.09375 4.945313 2.382813.757812 4.960937.367187 7.03125-1.058594 4.632813-3.242187 10.132813-4.957031 15.890625-4.957031 8.882812 0 17.265625 4.214844 22.421875 11.277344 1.90625 2.601562 5.1875 3.808593 8.3125 3.066406 3.132813-.746094 5.515625-3.296875 6.039063-6.472656 3.835937-23.105469 23.703124-39.871094 47.226562-39.871094 7.296875 0 14.28125 1.589844 20.757812 4.722656 2.59375 1.253906 5.65625 1.011719 8.03125-.621094 2.375-1.636718 3.679688-4.421875 3.421876-7.292968-.140626-1.601563-.210938-3.207032-.210938-4.808594 0-32.578125 24.476562-59.550782 56-63.503906v123.503906h-448zm0 275.503906h185.335938c8.378906 0 16.277343 2.667968 22.238281 7.511718.078125.066407.128906.144532.207031.210938 1.332031 1.144531 2.515625 2.363281 3.539062 3.648438.34375.433593.578126.90625.890626 1.355468.652343.953125 1.296874 1.910156 1.78125 2.914063.054687.117187.082031.242187.132812.359375h-214.125zm416 48h-116.6875l-27.3125-27.3125v-28.6875h24c4.421875 0 8-3.582032 8-8v-72c0-4.410156 3.585938-8 8-8 2.132812 0 4.109375.816406 5.703125 2.449218 1.476563 1.445313 2.296875 3.414063 2.296875 5.550782v72h16v-24h16v24h16v-24h16v24h16v-24h16zm32-32h-16v-16h16zm0 0" fill="url(#b)"/><path d="m32 295.871094h176v16h-176zm0 0" fill="url(#c)"/><path d="m32 327.871094h176v16h-176zm0 0" fill="url(#d)"/><path d="m32 359.871094h176v16h-176zm0 0" fill="url(#e)"/></svg>