<svg id="Capa_1" enable-background="new 0 0 512 512" height="512" viewBox="0 0 512 512" width="512" xmlns="http://www.w3.org/2000/svg"><g><g><path d="m467 512h-422c-24.814 0-45-20.186-45-45v-180c0-24.814 20.186-45 45-45h422c24.814 0 45 20.186 45 45v180c0 24.814-20.186 45-45 45z" fill="#66b3ff"/></g><path d="m467 242h-211v270h211c24.814 0 45-20.186 45-45v-180c0-24.814-20.186-45-45-45z" fill="#4d88ff"/><g id="Live_1_"><g><path d="m136 422h-45v-105c0-8.291-6.709-15-15-15s-15 6.709-15 15v120c0 8.291 6.709 15 15 15h60c8.291 0 15-6.709 15-15s-6.709-15-15-15z" fill="#ebf2f2"/><path d="m196 302c-8.291 0-15 6.709-15 15v120c0 8.291 6.709 15 15 15s15-6.709 15-15v-120c0-8.291-6.709-15-15-15z" fill="#ebf2f2"/><path d="m436 392c8.291 0 15-6.709 15-15s-6.709-15-15-15h-45v-30h45c8.291 0 15-6.709 15-15s-6.709-15-15-15h-60c-8.291 0-15 6.709-15 15v120c0 8.291 6.709 15 15 15h60c8.291 0 15-6.709 15-15s-6.709-15-15-15h-45v-30z" fill="#cee2e6"/><path d="m330.7 320.6-30 120c-1.8 6.599-7.8 11.4-14.7 11.4s-12.9-4.801-14.7-11.4l-15.3-61.8-14.7-58.2c-1.8-8.101 2.999-16.201 11.1-18.001 1.199-.298 2.401-.599 3.6-.599 6.599 0 12.9 4.499 14.7 11.4l15.3 61.8 15.3-61.8c2.1-8.101 10.199-12.9 18.3-10.801 8.1 1.8 12.9 9.9 11.1 18.001z" fill="#ebf2f2"/></g><g><path d="m123.988 204.016c-43.77-58.301-43.77-139.717 0-198.018 4.98-6.621 14.414-7.939 20.977-2.988 6.65 4.98 7.969 14.37 2.988 21.006-35.771 47.681-35.771 114.302 0 161.982 4.98 6.636 3.662 16.025-2.988 21.006-6.642 4.981-16.05 3.614-20.977-2.988z" fill="#9ef"/></g><g><path d="m367.035 207.004c-6.65-4.98-7.969-14.37-2.988-21.006 35.771-47.681 35.771-114.302 0-161.982-4.98-6.636-3.662-16.025 2.988-21.006 6.592-4.966 16.025-3.662 20.977 2.988 43.77 58.301 43.77 139.717 0 198.018-4.926 6.6-14.334 7.971-20.977 2.988z" fill="#80d5ff"/></g><g><path d="m177.748 175.012c-35.742-39.902-35.742-100.107 0-140.01 5.537-6.182 15.029-6.665 21.182-1.172 6.152 5.522 6.68 15.015 1.143 21.182-25.518 28.506-25.518 71.484 0 99.99 5.537 6.167 5.01 15.659-1.143 21.182-6.164 5.503-15.644 5.024-21.182-1.172z" fill="#9ef"/></g><g><path d="m313.07 176.184c-6.152-5.522-6.68-15.015-1.143-21.182 25.518-28.506 25.518-71.484 0-99.99-5.537-6.167-5.01-15.659 1.143-21.182s15.645-5.039 21.182 1.172c35.742 39.902 35.742 100.107 0 140.01-5.528 6.185-15.007 6.685-21.182 1.172z" fill="#80d5ff"/></g><g><path d="m256 150.007c-24.814 0-45-20.186-45-45s20.186-45 45-45 45 20.186 45 45-20.186 45-45 45z" fill="#9ef"/></g></g><path d="m301 105.007c0-24.814-20.186-45-45-45v90c24.814 0 45-20.186 45-45z" fill="#80d5ff"/><path d="m330.7 320.6-30 120c-1.8 6.599-7.8 11.4-14.7 11.4s-12.9-4.801-14.7-11.4l-15.3-61.8v-76.8c6.599 0 12.9 4.499 14.7 11.4l15.3 61.8 15.3-61.8c2.1-8.101 10.199-12.9 18.3-10.801 8.1 1.8 12.9 9.9 11.1 18.001z" fill="#cee2e6"/></g></svg>