<svg id="Layer_1_1_" enable-background="new 0 0 64 64" height="512" viewBox="0 0 64 64" width="512" xmlns="http://www.w3.org/2000/svg"><path d="m56 24-.025.01c-.272-12.072-10.475-21.693-22.771-20.972-10.922.641-19.773 9.694-20.188 20.627-.167 4.392.988 8.498 3.096 11.962 4.316 7.092 6.888 15.105 6.888 23.406v1.967 1h16v-9h14v-13h9z" fill="#91cbd7"/><circle cx="34" cy="21" fill="#4e9bb9" r="15"/><path d="m39 53h-5l5 2z" fill="#4e9bb9"/><g fill="#68607c"><path d="m7 20h18v2h-18z"/><path d="m23 17h-10.414l-4-4h-1.586v-2h2.414l4 4h9.586z"/><path d="m9.414 31h-2.414v-2h1.586l4-4h10.414v2h-9.586z"/><path d="m33 13h2v6h-2z"/><path d="m33 23h2v6h-2z"/><path d="m37.5 10.353h2v6.294h-2z" transform="matrix(.486 -.874 .874 .486 7.987 40.582)"/><path d="m42 18h2v6h-2z"/><path d="m35.353 27.5h6.294v2h-6.294z" transform="matrix(.874 -.486 .486 .874 -9 22.315)"/><path d="m37.5 20.353h2v6.294h-2z" transform="matrix(.486 -.874 .874 .486 -.752 45.721)"/><path d="m35.353 17.5h6.294v2h-6.294z" transform="matrix(.874 -.486 .486 .874 -4.138 21.054)"/><path d="m26.353 12.5h6.294v2h-6.294z" transform="matrix(.874 -.486 .486 .874 -2.842 16.047)"/><path d="m24 18h2v6h-2z"/><path d="m28.5 25.353h2v6.294h-2z" transform="matrix(.486 -.874 .874 .486 -9.747 40.425)"/><path d="m26.353 22.5h6.294v2h-6.294z" transform="matrix(.874 -.486 .486 .874 -7.704 17.309)"/><path d="m28.5 15.353h2v6.294h-2z" transform="matrix(.486 -.874 .874 .486 -1.008 35.286)"/></g><path d="m43 23c1.65 0 3 1.35 3 3s-1.35 3-3 3c-1.125 0-2.1-.63-2.625-1.545-.24-.435-.375-.93-.375-1.455s.135-1.02.375-1.455c.525-.915 1.5-1.545 2.625-1.545z" fill="#ffd086"/><path d="m43 13c1.65 0 3 1.35 3 3s-1.35 3-3 3c-1.125 0-2.1-.63-2.625-1.545-.24-.435-.375-.93-.375-1.455s.135-1.02.375-1.455c.525-.915 1.5-1.545 2.625-1.545z" fill="#ffd086"/><path d="m36.625 29.545c.24.435.375.93.375 1.455 0 1.65-1.35 3-3 3s-3-1.35-3-3c0-.525.135-1.02.375-1.455.525-.915 1.5-1.545 2.625-1.545s2.1.63 2.625 1.545z" fill="#ffd086"/><path d="m27.625 27.455c-.525.915-1.5 1.545-2.625 1.545-1.65 0-3-1.35-3-3s1.35-3 3-3c1.125 0 2.1.63 2.625 1.545.24.435.375.93.375 1.455s-.135 1.02-.375 1.455z" fill="#ffd086"/><path d="m36.625 19.545c.24.435.375.93.375 1.455s-.135 1.02-.375 1.455c-.525.915-1.5 1.545-2.625 1.545s-2.1-.63-2.625-1.545c-.24-.435-.375-.93-.375-1.455s.135-1.02.375-1.455c.525-.915 1.5-1.545 2.625-1.545s2.1.63 2.625 1.545z" fill="#ffd086"/><path d="m27.625 17.455c-.525.915-1.5 1.545-2.625 1.545-1.65 0-3-1.35-3-3s1.35-3 3-3c1.125 0 2.1.63 2.625 1.545.24.435.375.93.375 1.455s-.135 1.02-.375 1.455z" fill="#ffd086"/><path d="m37 11c0 .525-.135 1.02-.375 1.455-.525.915-1.5 1.545-2.625 1.545s-2.1-.63-2.625-1.545c-.24-.435-.375-.93-.375-1.455 0-1.65 1.35-3 3-3s3 1.35 3 3z" fill="#ffd086"/><circle cx="5" cy="21" fill="#ffd086" r="3"/><circle cx="5" cy="12" fill="#ffd086" r="3"/><circle cx="5" cy="30" fill="#ffd086" r="3"/><path d="m53 46h-4c-2.757 0-5-2.243-5-5h2c0 1.654 1.346 3 3 3h4z" fill="#68607c"/></svg>