<svg id="Capa_1" enable-background="new 0 0 512.041 512.041" height="512" viewBox="0 0 512.041 512.041" width="512" xmlns="http://www.w3.org/2000/svg"><g><path d="m489.608 153.11c-25.77 30.059-29.105 33.994-34.26 39.98-34.89 40.7-97.55 43.68-136.01 5.22-.127-.127-5.197-5.2-5.71-5.71-38.24-38.24-35.68-100.96 5.22-136 14.912-12.842-27.805 23.833 39.98-34.27 36.568-31.327 91.404-29.696 126.02 4.92 34.23 34.31 36.26 89.14 4.76 125.86z" fill="#f4f4f6"/><path d="m489.608 153.11c-25.77 30.059-29.105 33.994-34.26 39.98-34.89 40.7-97.55 43.68-136.01 5.22-1.72-1.72-2.2-2.2-2.771-2.77l168.28-168.29c34.231 34.31 36.261 89.14 4.761 125.86z" fill="#e2dff4"/><path d="m477.618 167.1c-11.3 13.19-9.88 11.53-19.57 22.85-7.572-7.572-128.498-128.498-136.05-136.05 11.19-9.58 9.82-8.4 22.85-19.58 81.977 81.99 50.323 50.333 132.77 132.78z" fill="#e2dff4"/><path d="m477.618 167.1c-11.3 13.19-9.88 11.53-19.57 22.85l-67.95-67.95 21.21-21.21z" fill="#bebcdd"/><path d="m113.168 474.31-27.97 24.87c-20.63 18.143-51.181 16.795-70.1-2.18-18.463-17.762-20.653-49.088-2.25-70.03l24.94-28.04c5.711-6.418 15.705-6.755 21.82-.64l54.2 54.2c6.038 6.038 5.854 16.022-.64 21.82z" fill="#4a5959"/><path d="m113.808 452.49c6.038 6.038 5.854 16.022-.64 21.82l-27.97 24.87c-20.63 18.143-51.181 16.795-70.1-2.18l71.61-71.61z" fill="#403b40"/><path d="m273.608 310.37-71.88-71.88c-6.1-6.101-16.094-5.794-21.82.64l-141.54 159.14c9.127 9.127 66.273 66.273 75.46 75.46l159.14-141.54c6.478-5.766 6.694-15.767.64-21.82z" fill="#696e73"/><path d="m272.968 332.19-159.14 141.54-37.73-37.73 161.57-161.57 35.94 35.94c6.059 6.058 5.832 16.06-.64 21.82z" fill="#4a5959"/><path d="m237.668 295.65-26.96 26.96c-2.93 2.93-6.77 4.39-10.61 4.39-13.31 0-20.025-16.179-10.61-25.61l26.96-26.96c5.86-5.85 15.36-5.85 21.22 0 5.85 5.86 5.85 15.36 0 21.22z" fill="#ace233"/><path d="m237.668 274.43c5.85 5.86 5.85 15.36 0 21.22l-26.96 26.96c-5.824 5.825-15.339 5.882-21.22 0z" fill="#00cb75"/><path d="m405.578 242.12-135.76-135.76c-5.862-5.842-15.337-5.863-21.22 0l-100.11 100.11c-5.85 5.86-5.85 15.36 0 21.22l135.76 135.76c5.812 5.811 15.325 5.894 21.22 0l100.11-100.11c5.842-5.863 5.863-15.337 0-21.22z" fill="#ff8659"/><path d="m405.578 242.12c5.842 5.862 5.863 15.337 0 21.22l-100.11 100.11c-5.812 5.811-15.325 5.894-21.22 0l-67.8-67.8 121.33-121.33z" fill="#ff5c5c"/><path d="m310.708 270.61c-5.824 5.825-15.339 5.882-21.22 0l-48-48c-5.85-5.86-5.85-15.36 0-21.22 5.86-5.85 15.36-5.85 21.22 0l48 48c5.85 5.86 5.85 15.36 0 21.22z" fill="#ffe278"/><path d="m310.708 249.39c9.41 9.426 2.705 25.61-10.61 25.61-3.84 0-7.68-1.46-10.61-4.39l-24-24 21.22-21.22z" fill="#ffc178"/></g></svg>