<svg height="464pt" viewBox="0 0 464 464" width="464pt" xmlns="http://www.w3.org/2000/svg"><path d="m200 200c0 48.601562-39.398438 88-88 88s-88-39.398438-88-88 39.398438-88 88-88 88 39.398438 88 88zm0 0" fill="#dedee6"/><path d="m184 200c0 39.765625-32.234375 72-72 72s-72-32.234375-72-72 32.234375-72 72-72 72 32.234375 72 72zm0 0" fill="#f3f3fb"/><path d="m464 88c0 48.601562-39.398438 88-88 88s-88-39.398438-88-88 39.398438-88 88-88 88 39.398438 88 88zm0 0" fill="#dedee6"/><path d="m448 88c0 39.765625-32.234375 72-72 72s-72-32.234375-72-72 32.234375-72 72-72 72 32.234375 72 72zm0 0" fill="#f3f3fb"/><path d="m360 376c0 48.601562-39.398438 88-88 88s-88-39.398438-88-88 39.398438-88 88-88 88 39.398438 88 88zm0 0" fill="#dedee6"/><path d="m344 376c0 39.765625-32.234375 72-72 72s-72-32.234375-72-72 32.234375-72 72-72 72 32.234375 72 72zm0 0" fill="#f3f3fb"/><path d="m432 304c-11.199219 0-21.121094-5.761719-26.800781-14.558594-3.277344-5.042968-5.199219-11.042968-5.199219-17.441406 0-17.679688 14.320312-32 32-32s32 14.320312 32 32-14.320312 32-32 32zm0 0" fill="#dedee6"/><path d="m431.839844 156.078125c-15.199219 12.402344-34.640625 19.921875-55.839844 19.921875-10.558594 0-20.640625-1.839844-29.921875-5.199219v-.082031c-9.519531-3.359375-18.238281-8.398438-25.917969-14.640625 2-24.636719 22.71875-44.078125 47.839844-44.078125h16c25.121094 0 45.839844 19.441406 47.839844 44.078125zm0 0" fill="#ee964b"/><path d="m408 80c0 17.671875-14.328125 32-32 32s-32-14.328125-32-32 14.328125-32 32-32 32 14.328125 32 32zm0 0" fill="#ee964b"/><path d="m272 464c-21.28125 0-40.800781-7.519531-56-20.078125 2.078125-24.5625 22.800781-43.921875 47.839844-43.921875h16c25.121094 0 45.839844 19.441406 47.839844 44.078125l.082031.082031c-15.203125 12.398438-34.5625 19.839844-55.761719 19.839844zm0 0" fill="#ffca55"/><path d="m303.839844 368c0 17.671875-14.328125 32-32 32s-32-14.328125-32-32 14.328125-32 32-32 32 14.328125 32 32zm0 0" fill="#ffca55"/><path d="m224 0c17.679688 0 32 14.320312 32 32 0 3.921875-.71875 7.601562-2 11.039062-4.480469 12.242188-16.238281 20.960938-30 20.960938-17.679688 0-32-14.320312-32-32s14.320312-32 32-32zm0 0" fill="#dedee6"/><path d="m112 288c-15.519531 0-30.078125-4-42.71875-11.039062-4.722656-2.5625-9.121094-5.601563-13.28125-9.039063 2.078125-24.5625 22.800781-43.921875 47.839844-43.921875h16c25.121094 0 45.839844 19.441406 47.839844 44.078125l.082031.082031c-15.203125 12.398438-34.5625 19.839844-55.761719 19.839844zm0 0" fill="#5dbcd9"/><path d="m143.839844 192c0 17.671875-14.328125 32-32 32s-32-14.328125-32-32 14.328125-32 32-32 32 14.328125 32 32zm0 0" fill="#5dbcd9"/><path d="m104 448c-17.679688 0-32-14.320312-32-32s14.320312-32 32-32c15.121094 0 27.761719 10.480469 31.121094 24.558594.558594 2.402344.878906 4.882812.878906 7.441406 0 17.679688-14.320312 32-32 32zm0 0" fill="#dedee6"/><path d="m32 312c5.601562 0 10.960938 1.441406 15.519531 4.078125 9.839844 5.441406 16.480469 15.921875 16.480469 27.921875 0 17.679688-14.320312 32-32 32s-32-14.320312-32-32 14.320312-32 32-32zm0 0" fill="#dedee6"/><path d="m32 0c17.679688 0 32 14.320312 32 32 0 12.71875-7.441406 23.761719-18.238281 28.800781-4.160157 2.078125-8.882813 3.199219-13.761719 3.199219-17.679688 0-32-14.320312-32-32s14.320312-32 32-32zm0 0" fill="#dedee6"/><g fill="#45639c"><path d="m38.539062 64.234375 14.449219-6.875 28.398438 59.679687-14.449219 6.875zm0 0"/><path d="m40.515625 312.183594 21.761719-39.109375 13.980468 7.777343-21.761718 39.113282zm0 0"/><path d="m251.238281 50.546875 5.542969-15.019531 39.4375 14.5625-5.542969 15.019531zm0 0"/><path d="m294.421875 290.496094 44.113281-122.421875 15.046875 5.417969-44.113281 122.425781zm0 0"/><path d="m341.375 321.371094 59.457031-38.617188 8.71875 13.425782-59.453125 38.617187zm0 0"/><path d="m165.269531 270.511719 11.84375-10.761719 41.597657 45.769531-11.839844 10.761719zm0 0"/><path d="m133.253906 400.769531 51.277344-12.175781 3.691406 15.558594-51.273437 12.175781zm0 0"/><path d="m189.917969 158.226562 101.9375-43.1875 6.242187 14.734376-101.9375 43.183593zm0 0"/></g></svg>