<svg id="Layer_1" enable-background="new 0 0 512 512" height="512" viewBox="0 0 512 512" width="512" xmlns="http://www.w3.org/2000/svg"><g><g><g fill="#fade3d"><path d="m257.484 396.382c-4.143 0-7.5 3.358-7.5 7.5v100.618c0 4.142 3.357 7.5 7.5 7.5s7.5-3.358 7.5-7.5v-100.618c0-4.142-3.357-7.5-7.5-7.5z"/><path d="m389.977 430.596c1.919 0 3.839-.732 5.304-2.197 2.929-2.929 2.929-7.677 0-10.606l-19.213-19.213c-2.929-2.929-7.677-2.93-10.607 0-2.929 2.929-2.929 7.677 0 10.606l19.213 19.213c1.464 1.465 3.383 2.197 5.303 2.197z"/><path d="m418.086 440.598c-2.93-2.929-7.678-2.929-10.607 0s-2.929 7.678 0 10.606l42.705 42.705c1.465 1.464 3.385 2.197 5.304 2.197s3.839-.732 5.304-2.197c2.929-2.929 2.929-7.678 0-10.606z"/><path d="m138.901 398.579-39.096 39.096c-2.929 2.929-2.929 7.678 0 10.606 1.465 1.464 3.385 2.197 5.304 2.197s3.839-.732 5.304-2.197l39.096-39.096c2.929-2.929 2.929-7.678 0-10.606-2.93-2.929-7.678-2.929-10.608 0z"/><path d="m75.53 461.95-21.352 21.352c-2.929 2.929-2.929 7.678 0 10.606 1.465 1.464 3.385 2.197 5.304 2.197s3.839-.732 5.304-2.197l21.352-21.352c2.929-2.929 2.929-7.678 0-10.606-2.93-2.929-7.678-2.929-10.608 0z"/></g><path d="m464.521 417.445c-9.652 0-9.668 15 0 15 9.652 0 9.668-15 0-15z" fill="#7dffc6"/><path d="m134.599 470.429c-9.652 0-9.668 15 0 15 9.651 0 9.667-15 0-15z" fill="#ff982b"/><path d="m59.482 420.989c9.652 0 9.668-15 0-15-9.652 0-9.668 15 0 15z" fill="#ff70ea"/><path d="m209.032 457.513c-9.652 0-9.668 15 0 15 9.652 0 9.667-15 0-15z" fill="#7dffc6"/><path d="m307.484 457.513c-9.652 0-9.668 15 0 15 9.651 0 9.667-15 0-15z" fill="#ff70ea"/><path d="m185.215 417.445c-9.652 0-9.668 15 0 15 9.652 0 9.668-15 0-15z" fill="#33b8ff"/><path d="m326.308 417.445c-9.652 0-9.668 15 0 15 9.652 0 9.668-15 0-15z" fill="#ff982b"/><path d="m390.998 472.816c-9.652 0-9.668 15 0 15 9.652 0 9.667-15 0-15z" fill="#33b8ff"/><path d="m257.39 115.618c4.143 0 7.5-3.358 7.5-7.5v-100.618c0-4.142-3.357-7.5-7.5-7.5s-7.5 3.358-7.5 7.5v100.618c0 4.142 3.357 7.5 7.5 7.5z" fill="#fade3d"/><path d="m119.594 83.601c-2.929 2.929-2.929 7.677 0 10.606l19.213 19.213c1.465 1.465 3.384 2.197 5.304 2.197 1.919 0 3.839-.732 5.304-2.197 2.929-2.929 2.929-7.677 0-10.606l-19.213-19.213c-2.93-2.929-7.678-2.93-10.608 0z" fill="#fade3d"/><path d="m107.395 71.402c2.929-2.929 2.929-7.678 0-10.606l-42.704-42.705c-2.929-2.929-7.677-2.929-10.607 0-2.929 2.929-2.929 7.678 0 10.606l42.704 42.705c1.465 1.465 3.384 2.197 5.304 2.197 1.919 0 3.839-.732 5.303-2.197z" fill="#fade3d"/><path d="m370.669 115.618c1.919 0 3.839-.732 5.304-2.197l39.096-39.096c2.929-2.929 2.929-7.678 0-10.606-2.93-2.929-7.678-2.929-10.607 0l-39.096 39.096c-2.929 2.929-2.929 7.678 0 10.606 1.464 1.464 3.384 2.197 5.303 2.197z" fill="#fade3d"/><path d="m434.04 52.247c1.919 0 3.839-.732 5.304-2.197l21.352-21.352c2.929-2.929 2.929-7.678 0-10.606-2.93-2.929-7.678-2.929-10.607 0l-21.352 21.352c-2.929 2.929-2.929 7.678 0 10.606 1.464 1.464 3.384 2.197 5.303 2.197z" fill="#fade3d"/><path d="m50.353 79.555c-9.652 0-9.668 15 0 15 9.652 0 9.668-15 0-15z" fill="#7dffc6"/><path d="m380.276 41.571c9.652 0 9.668-15 0-15-9.652 0-9.668 15 0 15z" fill="#ff982b"/><path d="m455.392 91.011c-9.652 0-9.668 15 0 15 9.652 0 9.668-15 0-15z" fill="#ff70ea"/><path d="m305.842 54.487c9.652 0 9.668-15 0-15-9.651 0-9.667 15 0 15z" fill="#7dffc6"/><path d="m207.391 54.487c9.652 0 9.667-15 0-15-9.652 0-9.668 15 0 15z" fill="#ff70ea"/><path d="m329.659 79.555c-9.652 0-9.668 15 0 15 9.652 0 9.668-15 0-15z" fill="#33b8ff"/><path d="m188.566 79.555c-9.652 0-9.668 15 0 15 9.652 0 9.668-15 0-15z" fill="#ff982b"/><path d="m123.876 39.185c9.652 0 9.668-15 0-15-9.652 0-9.668 15 0 15z" fill="#33b8ff"/></g><g><g><path d="m258.019 163.349c-9.278 0-16.801 7.71-16.801 17.222v151.446c0 22.163 33.602 22.199 33.602 0v-151.447c0-9.511-7.523-17.221-16.801-17.221z" fill="#fade3d"/><path d="m488.27 315.146h-45.983v-41.925h41.355c21.621 0 21.657-34.443 0-34.443h-41.355v-41.925h45.983c21.621 0 21.657-34.443 0-34.443h-62.785c-9.278 0-16.801 7.71-16.801 17.222v152.736c0 9.511 7.523 17.222 16.801 17.222h62.785c21.622 0 21.658-34.444 0-34.444z" fill="#33b8ff"/><g fill="#16abfa"><path d="m448.27 196.854h40c21.622 0 21.657-34.443 0-34.443h-40c21.658-.001 21.622 34.443 0 34.443z"/><path d="m488.27 315.146h-40c21.657 0 21.622 34.443 0 34.443h40c21.622.001 21.658-34.443 0-34.443z"/><path d="m443.642 273.222h40c21.621 0 21.657-34.443 0-34.443h-40c21.657-.001 21.621 34.443 0 34.443z"/></g><path d="m332.952 163.986h-41.33c-9.273 0-16.801 7.937-16.801 17.377v146.999c0 10.259 6.626 19.652 17.161 19.652 1.248-.005 30.708-.122 42.474-.332 43.012-.77 74.23-39.328 74.23-91.682-.001-55.036-30.435-92.014-75.734-92.014zm.915 149.3c-5.859.105-16.371.187-25.445.242v-115.056h24.529c30.635 0 42.131 30.574 42.131 57.571 0 33.269-16.948 56.808-41.215 57.243z" fill="#7dffc6"/><g><path d="m332.952 163.986h-40c31.035 0 55.087 17.362 67.161 45.991 10.575 11.357 14.97 29.389 14.97 46.065 0 19.626-5.902 35.86-15.72 45.968-12.334 27.474-35.937 45.152-64.908 45.671-1.499.027-3.287.052-5.265.076.9.152 1.823.257 2.792.257 1.248-.005 30.708-.122 42.474-.332 43.012-.77 74.23-39.328 74.23-91.682-.001-55.036-30.436-92.014-75.734-92.014z" fill="#51f0aa"/></g><path d="m236.961 321.739-40.364-47.011c25.521-6.033 44.553-28.707 44.553-55.694 0-31.585-26.061-57.282-58.094-57.282h-39.962c-.008 0-.016.001-.025.001-.008 0-.016-.001-.025-.001-9.278 0-16.801 7.71-16.801 17.222v154.143c0 22.163 33.602 22.199 33.602 0v-49.056l51.89 60.434c14.159 16.487 39.588-6.027 25.226-22.756zm-77.115-80.573v-44.971h23.21c13.505 0 24.491 10.245 24.491 22.839 0 10.29-6.803 22.133-24.491 22.133 0-.001 0-.001-23.21-.001z" fill="#ff982b"/><g><path d="m236.961 321.739-40.365-47.011c25.521-6.033 44.553-28.707 44.553-55.694 0-31.585-26.062-57.282-58.094-57.282h-39.962c-.004 0-.008 0-.012.001 25.678.011 47.5 16.541 55.143 39.371 5.672 4.187 9.322 10.656 9.322 17.91 0 6.571-2.78 13.769-9.39 18.118-4.907 14.463-18.476 26.373-33.458 33.122-6.061 2.73-7.734 10.565-3.396 15.604l39.911 46.363 10.522 12.255c14.159 16.486 39.588-6.028 25.226-22.757z" fill="#ff8708"/></g><path d="m66.174 162h-41.873c-9.155 0-16.801 7.838-16.801 17.221v154.144c0 22.163 33.602 22.199 33.602 0v-49.827c8.938-.048 19.32-.096 25.072-.096 33.122 0 60.069-27.239 60.069-60.721.001-33.482-26.947-60.721-60.069-60.721zm0 86.998c-5.756 0-16.112.047-25.072.095v-52.651h25.072c14.595 0 26.467 11.789 26.467 26.278 0 14.491-11.872 26.278-26.467 26.278z" fill="#ff70ea"/><g><path d="m66.175 162h-40c26.01 0 48.205 16.801 56.54 40.228 6.046 4.82 9.927 12.213 9.927 20.493s-3.881 15.673-9.927 20.493c-8.335 23.427-41.612 40.324-41.612 40.324 8.938-.048 19.319-.096 25.072-.096 33.121 0 60.069-27.239 60.069-60.72 0-33.483-26.948-60.722-60.069-60.722z" fill="#ff54e6"/></g></g></g></g></svg>