<svg height="512pt" viewBox="0 0 512 512" width="512pt" xmlns="http://www.w3.org/2000/svg"><path d="m512 272v60l-20.699219 25.199219h-115.203125l-14.097656-25.199219v-60l35.699219-32.699219c-1.5-1.5 17.101562 0 39.300781 2.097657 29.699219 3 65.699219 7.199218 65.699219 7.199218zm0 0" fill="#ff9f00"/><path d="m512 272v60l-20.699219 25.199219h-54.300781v-115.800781c29.699219 3 65.699219 7.199218 65.699219 7.199218zm0 0" fill="#ff7816"/><path d="m451 15v60c0 8.398438-6.597656 15-15 15s-15-6.601562-15-15v-23.699219l-154.5 155.199219c-2.699219 3-6.601562 4.5-10.5 4.5s-7.800781-1.5-10.5-4.5l-49.5-49.199219-109.5 109.199219c-2.699219 3-6.601562 4.5-10.5 4.5s-7.800781-1.5-10.5-4.5c-6-5.699219-6-15.300781 0-21l120-120c5.699219-6 15.300781-6 21 0l49.5 49.199219 143.699219-144.699219h-23.699219c-8.402344 0-15-6.601562-15-15 0-8.402344 6.597656-15 15-15h60c8.402344 0 15 6.597656 15 15zm0 0" fill="#e63950"/><g fill="#ff9f00"><path d="m150 407v45s-54.300781 28.199219-57.300781 28.199219c-1.199219 0-9 .300781-17.699219.601562-12.597656 0-27.300781.296875-27.300781.296875l-47.699219-29.097656v-45c0-8.402344 6.597656-15 15-15h120c8.402344 0 15 6.597656 15 15zm0 0"/><path d="m331 392v60l-22.5 31.800781h-94.800781l-32.699219-31.800781v-60l26.398438-15.902344h96.300781zm0 0"/><path d="m512 392v60l-16.800781 23.398438h-104.101563l-29.097656-23.398438v-60l19.800781-18.601562h105zm0 0"/></g><path d="m451 15v60c0 8.398438-6.597656 15-15 15s-15-6.601562-15-15v-23.699219l-154.5 155.199219c-2.699219 3-6.601562 4.5-10.5 4.5v-36.300781l143.699219-144.699219h-23.699219c-8.402344 0-15-6.601562-15-15 0-8.402344 6.597656-15 15-15h60c8.402344 0 15 6.597656 15 15zm0 0" fill="#cc2e43"/><path d="m331 392v60l-22.5 31.800781h-52.5v-107.703125h47.699219zm0 0" fill="#ff7816"/><path d="m486.800781 373.398438 25.199219 18.601562v60l-16.800781 23.398438h-58.199219v-102zm0 0" fill="#ff7816"/><path d="m150 407v45s-54.300781 28.199219-57.300781 28.199219c-1.199219 0-9 .300781-17.699219.601562v-88.800781h60c8.402344 0 15 6.597656 15 15zm0 0" fill="#ff7816"/><path d="m512 452v45c0 8.398438-6.597656 15-15 15h-120c-8.402344 0-15-6.601562-15-15v-45zm0 0" fill="#ffd400"/><path d="m331 452v45c0 8.398438-6.597656 15-15 15h-120c-8.402344 0-15-6.601562-15-15v-45zm0 0" fill="#ffd400"/><path d="m150 452v45c0 8.398438-6.597656 15-15 15h-120c-8.402344 0-15-6.601562-15-15v-45zm0 0" fill="#ffd400"/><path d="m256 452h75v45c0 8.398438-6.597656 15-15 15h-60zm0 0" fill="#fdbf00"/><path d="m437 452h75v45c0 8.398438-6.597656 15-15 15h-60zm0 0" fill="#fdbf00"/><path d="m150 452v45c0 8.398438-6.597656 15-15 15h-60v-60zm0 0" fill="#fdbf00"/><path d="m362 332h150v60h-150zm0 0" fill="#ffd400"/><path d="m331 347v45h-150v-45c0-8.402344 6.597656-15 15-15h120c8.402344 0 15 6.597656 15 15zm0 0" fill="#ffd400"/><path d="m331 347v45h-75v-60h60c8.402344 0 15 6.597656 15 15zm0 0" fill="#fdbf00"/><path d="m437 332h75v60h-75zm0 0" fill="#fdbf00"/><path d="m512 212v60h-150v-60c0-8.402344 6.597656-15 15-15h120c8.402344 0 15 6.597656 15 15zm0 0" fill="#ffd400"/><path d="m512 212v60h-75v-75h60c8.402344 0 15 6.597656 15 15zm0 0" fill="#fdbf00"/></svg>