<svg id="Layer_1" data-name="Layer 1" xmlns="http://www.w3.org/2000/svg" viewBox="0 0 1080 1080"><defs><style>.cls-1{fill:#fff;}.cls-2{opacity:0.22;}.cls-3{fill:#f8b0b5;}.cls-4{fill:#b7b7b7;opacity:0.35;}.cls-5{fill:#118341;}.cls-5,.cls-6,.cls-7{opacity:0.69;}.cls-6{fill:#e9cf34;}.cls-7{fill:#ed2024;}.cls-8{fill:#e5e5e5;stroke:#262626;stroke-width:3.22px;}.cls-11,.cls-17,.cls-8{stroke-miterlimit:10;}.cls-9{fill:#f5c1ab;}.cls-10{fill:#585b58;}.cls-11{fill:#fffeff;stroke-width:0.54px;}.cls-11,.cls-17{stroke:#231f20;}.cls-12{fill:#6f776f;}.cls-13{fill:#2b3583;}.cls-14{fill:#1e1e1e;}.cls-15{fill:#f9f9fa;}.cls-16{fill:#231f20;}.cls-17{fill:none;stroke-width:0.27px;}.cls-18{fill:#16123f;}.cls-19,.cls-20{fill:#515251;}.cls-19{opacity:0.47;}.cls-20{opacity:0.29;}.cls-21{fill:#fdfefe;}</style></defs><rect class="cls-1" width="1080" height="1080"/><g class="cls-2"><path class="cls-3" d="M428.17,361.14c-43.51-7.09-68.2-6.66-99.31,1.71s-60.45,32.78-72.57,67.58c-10.68,30.69-7.24,65.34-15.17,97.09-8.47,33.93-29.29,62.18-39.91,95.32s-5.84,78.65,22.07,90.44c21.52,9.09,45.49-6.36,68.49-4.88,28.8,1.86,51.09,29.94,63.61,60.1s18.45,63.9,32.06,93.37,38.44,55.49,67.3,53.06c26-2.19,47.16-26.49,61.71-52.22s25.39-54.76,44-76.6c31.77-37.25,80.1-46.53,124.32-44.35s88,13.7,132.3,9.68a202.55,202.55,0,0,0,86.49-29c35.14-21.31,67.26-57,74.28-102.42,5.7-36.88,21.87-80.22,19.06-117.3-2.86-37.85-36.26-60.86-46.37-96.74-12.66-44.93-40.48-86.51-81.13-84.12-37.45,2.2-70.41,29.4-104.2,49.43-47.86,28.38-103,43.52-154.55,30.17C578.31,393.1,548.9,374,517.18,363s-48-5.17-89-1.82"/></g><polygon class="cls-4" points="634.99 798.11 256.59 798.11 344.9 752.69 711.24 761.83 634.99 798.11"/><path class="cls-4" d="M199.32,504.48H351.07A17.53,17.53,0,0,1,368.6,522v16a0,0,0,0,1,0,0H184.08a0,0,0,0,1,0,0v-18.3A15.23,15.23,0,0,1,199.32,504.48Z"/><path class="cls-4" d="M184.08,542.88H368.6a0,0,0,0,1,0,0v90.28a12.53,12.53,0,0,1-12.53,12.53H199.4a15.32,15.32,0,0,1-15.32-15.32V542.88A0,0,0,0,1,184.08,542.88Z"/><circle class="cls-5" cx="192.22" cy="531.48" r="3.52"/><circle class="cls-6" cx="202.05" cy="531.48" r="3.52"/><circle class="cls-7" cx="211.8" cy="531.48" r="3.52"/><path class="cls-4" d="M314.63,336.12H466.38a17.53,17.53,0,0,1,17.53,17.53v16a0,0,0,0,1,0,0H299.4a0,0,0,0,1,0,0v-18.3A15.23,15.23,0,0,1,314.63,336.12Z"/><path class="cls-4" d="M299.4,374.52H483.92a0,0,0,0,1,0,0V464.8a12.53,12.53,0,0,1-12.53,12.53H314.72A15.32,15.32,0,0,1,299.4,462V374.52A0,0,0,0,1,299.4,374.52Z"/><path class="cls-4" d="M715,483.87H866.78a17.53,17.53,0,0,1,17.53,17.53v16a0,0,0,0,1,0,0H699.8a0,0,0,0,1,0,0v-18.3A15.23,15.23,0,0,1,715,483.87Z"/><path class="cls-4" d="M699.8,522.28H884.31a0,0,0,0,1,0,0v90.28a12.53,12.53,0,0,1-12.53,12.53H715.11a15.32,15.32,0,0,1-15.32-15.32V522.28A0,0,0,0,1,699.8,522.28Z"/><path class="cls-4" d="M807.29,416.77H959a17.53,17.53,0,0,1,17.53,17.53v16a0,0,0,0,1,0,0H792.05a0,0,0,0,1,0,0V432A15.23,15.23,0,0,1,807.29,416.77Z"/><path class="cls-4" d="M792.05,455.17H976.57a0,0,0,0,1,0,0v90.28A12.53,12.53,0,0,1,964,558H807.37a15.32,15.32,0,0,1-15.32-15.32V455.17A0,0,0,0,1,792.05,455.17Z"/><path class="cls-8" d="M469.43,399.62H712.71a7.8,7.8,0,0,1,7.8,7.8v158a0,0,0,0,1,0,0H464.34a0,0,0,0,1,0,0V404.72A5.09,5.09,0,0,1,469.43,399.62Z"/><path class="cls-9" d="M515.39,480.11c-4.46.72-7.76,4.95-12.23,5.59-2.84.4-5.66-.73-8.31-1.83-15.85-6.61-32.2-13.56-43.94-26.09a8.18,8.18,0,0,0-3.21-2.5c-1.31-.42-3,.14-3.35,1.47a3.73,3.73,0,0,0,.36,2.14l3.1,8.07a20.08,20.08,0,0,1-7.69-6.68c-1.09-1.6-2.11-3.49-3.95-4.09-2.75-.91-5.61,1.95-5.68,4.84s3.12,9.35,5.23,11.33c8.74,8.22,21.49,8.08,31,15.32,3.21,2.44,5.1,3.27,8.26,5.77,5.28,4.15,11.61,6.7,17.84,9.19,7.11,2.84,14.84,5.73,22.23,3.74,4.29-1.16,8-3.86,11.53-6.5a4.34,4.34,0,0,0,1.64-1.79c.46-1.2-.22-2.51-.91-3.6a67.85,67.85,0,0,0-12.87-14.95"/><polygon class="cls-10" points="328.6 742.1 608.91 741.04 704.95 693.42 462.65 697.79 328.6 742.1"/><path class="cls-11" d="M328.6,742.09s10.32,13.59.92,43.08c53.85-.43,279.84,0,279.84,0s9.51-19.22-.45-44.13C575.07,741,328.6,742.09,328.6,742.09Z"/><path class="cls-12" d="M609.36,785.17,709,737.33s10.38-17.91-4-43.91c-35.61,17.91-96,47.62-96,47.62S618.35,762,609.36,785.17Z"/><polygon class="cls-10" points="334.73 684.69 615.03 683.64 706.47 639.94 468.77 640.39 334.73 684.69"/><path class="cls-11" d="M334.73,684.69s-15.14,21,3,43.08c53.85-.44,277.77,0,277.77,0S603,707.89,615,683.64C581.19,683.64,334.73,684.69,334.73,684.69Z"/><path class="cls-11" d="M615.49,727.77l92-44.13s-13.41-20.53-1.4-43.25c-38.57,16.48-91,43.25-91,43.25S603.5,706.34,615.49,727.77Z"/><polygon class="cls-10" points="310.6 632.39 590.91 631.34 690.01 587.67 444.65 588.08 310.6 632.39"/><path class="cls-8" d="M464.34,565.45,349.46,607a3.35,3.35,0,0,0,1.14,6.5H597.43a40.21,40.21,0,0,0,15.45-3.1l107-44.69a.14.14,0,0,0-.05-.28Z"/><path class="cls-9" d="M594.18,417.1c.19.12.2-.35,0-.32s-.3.3-.33.52l-1.25,9.26a1.26,1.26,0,0,0,0,.72,1.36,1.36,0,0,0,.63.55A30.87,30.87,0,0,0,616,430.41a4.88,4.88,0,0,0,1.87-.84c1.3-1.09,1.25-3.07,1.08-4.76l-.9-9.18a27.91,27.91,0,0,1-21.35.16,4.11,4.11,0,0,0-2.63-.49c-.87.24-1.43,1.51-.72,2.08"/><path class="cls-13" d="M592.55,425.56c-5.81,1.85-9.89,2.27-15.71,4.12-5,1.59-10.28,2.58-16.52,5-5.88,2.26-13.52,8.43-17,13.68-39.07,59.1-81.67,15.78-81.67,15.78,5.28,8-12.78,28.39,46.37,51.82,4.24,1.68,8.5-.35,13-.79,9.35-.91,10.69-5.73,23.44-16,1.88,23.39-21.88,41.58-19.66,64.94,18.75,1.05,64.49-.08,83.24,1,16.65.93,31.71,1.68,48.24-.53-9.94-24.1-2.14-56.25-7.37-81.79.62,5.51-2.21,18.76-34.4,13.05,9.83-.93-45.55,20.84,52.33,36.33a12.92,12.92,0,0,0,14.8-11c5.68-40.34-10.29-57.22-17.22-69.46-1.79-3.15-3.76-6.33-6.68-8.49-2.41-1.78-5.32-2.74-8.14-3.78a126.79,126.79,0,0,1-19.16-8.93c-2.43-1.38-4.88-2.88-7.64-3.32s-5.65.22-8.46.63a45.8,45.8,0,0,1-21.84-2.15"/><polygon class="cls-14" points="603.79 529.26 552.85 537.5 541.3 468.42 593.58 460.69 603.79 529.26"/><path class="cls-9" d="M615.28,497.73a94.79,94.79,0,0,1-18.56-10.36,10.53,10.53,0,0,0,1.91,7.47c-3.13.51-5.94-1.71-8.86-2.94s-7.38-.64-7.79,2.5c-.23,1.8,1.09,3.38,2.32,4.72,3,3.26,6.19,6.64,10.39,8.07,3.84,1.3,8.08.78,12,1.83a37,37,0,0,1,7,3.08"/><path class="cls-15" d="M549.79,474.05a1.44,1.44,0,0,0,0-2.87,1.44,1.44,0,0,0,0,2.87Z"/><path class="cls-9" d="M579.84,365.66a55.3,55.3,0,0,0-3.42,20.61c.22,8.45,2.51,17,7.61,23.75s13.23,11.41,21.68,11.23a22.93,22.93,0,0,0,21.72-28.6,7.84,7.84,0,0,0,5.45-14.28c-1.5-1-3.33-1.47-4.65-2.7-4.16-3.86-.5-11.91-4.49-15.95-3.29-3.33-8.8-1.34-13.35-.27-5.33,1.25-10.89.86-16.35,1.24s-11.2,1.68-15.07,5.56"/><path class="cls-16" d="M618.48,347.55c-3.75-11.14-15-11.37-26.7-11.32s-16.27,3.89-25.45,11.22c-1.71,1.36-6.08.86-5.84,3,.37,3.39.13,2,1.53,5.11,1.1,2.44-.27,5.24-.25,7.92a15,15,0,0,0,1.51,5.59l11.91,28.8c1,2.41,2.49,5.21,5.1,5.39a54.87,54.87,0,0,1-.06-32.49,2.47,2.47,0,0,1,.89-1.47,2.58,2.58,0,0,1,1.46-.22,87.81,87.81,0,0,0,34.53-5.52,19.92,19.92,0,0,0,10.19,17l4.27-2.5c1.66,2.4,3.4,5.34,2.33,8.05-.8,2-4.56,4.34-6.1,5.86-3.1,3.06-2.23,7-.26,10.87a33.29,33.29,0,0,0-9.38-58.57"/><path class="cls-3" d="M484.6,441.07l12,11.37c-8.17-2-13.71-2.46-18.43-7.38a8.83,8.83,0,0,0-2.59-2.18,7.27,7.27,0,0,0-2.54-.45c-5.24-.32-11.94-.77-17.18-1.08a9.65,9.65,0,0,1-7.53-5c-1.13-2.59-.57-4.63-.64-6.7a57.55,57.55,0,0,1,.56-10.65c.22-2.07.59-4.31,2.08-5.77s3.63-1.79,5.65-2a101.55,101.55,0,0,1,33.7,1.93,11.5,11.5,0,0,1,5,2.06c2.45,2.08,2.85,5.64,3.07,8.84.39,5.6,0,12.58-5.1,14.92-1.58.73-6.52,3-8.17,2.49"/><path class="cls-15" d="M464.19,425l-1.35-.77a1.47,1.47,0,0,0-1.5,0,2.66,2.66,0,0,0-1.16,2,2.42,2.42,0,0,0,.65,1.88,2.54,2.54,0,0,0,3.7-.1,1.52,1.52,0,0,0,.38-1.45,2.68,2.68,0,0,0-3.27-1.71,1.54,1.54,0,0,0-1.05,1.84,1.51,1.51,0,0,0,1.84,1c.17,0,.16-.05,0,0s-.2,0,0,0a.56.56,0,0,1-.34-.38l.39-1.45c-.12.15-.05,0,.05,0h0c.12,0,.23,0,.05,0a.71.71,0,0,1,.37.12.52.52,0,0,1,.18.23s0,.32,0,.18,0,.12,0,.17a.59.59,0,0,1-.26.26h-1.5l1.34.77a1.49,1.49,0,0,0,1.51-2.58Z"/><path class="cls-15" d="M475.79,427.76l-.77.11a.69.69,0,0,1-.46-.3,1.05,1.05,0,0,1-.07-1l1.29-.74h-1.32l1.44,1.1c-.08-.28,0,0,0,.06,0-.17.1-.14,0,0l-.65.38q-1.08.09-1.17-.75a1.49,1.49,0,0,0,3,0,2.11,2.11,0,0,0-2.61-2.12c-1.27.39-1.69,2.07-1.35,3.21a1.53,1.53,0,0,0,1.44,1.1,4.35,4.35,0,0,0,2.07-.21,1.89,1.89,0,0,0,.77-2.06,2.11,2.11,0,0,0-3-1.35,1.5,1.5,0,0,0-.54,2,1.52,1.52,0,0,0,2,.54Z"/><path class="cls-15" d="M489.38,427.57l-1.3-.15-.23-.39.26-1a.53.53,0,0,1,.43-.2h0c-.09,0-.09,0,0,0s-.17-.07-.17-.07l.89.69a.86.86,0,0,1,0,.81c.12-.25-.19.25,0,0-.16.12-.2.15-.1.09l-.14.06a.86.86,0,0,1-.78-.2v-2.11l-1.43,1.55,1.81-.24c-.17-.08-.05,0,0,0a.94.94,0,0,1,.14.26c-.07-.17,0-.07,0,.05a.67.67,0,0,1-.14.36,1,1,0,0,1-.24.17c-.12.08.12,0,0,0s-.2,0-.31,0-.29-.25-.1-.05a1.49,1.49,0,1,0,2.11-2.11,2.47,2.47,0,1,0-2.94,3.88,1.54,1.54,0,0,0,1.81-.23l1.43-1.55a1.52,1.52,0,0,0,0-2.11,2.3,2.3,0,0,0-3.24.08c-1,1-1,2.93.47,3.45a2.38,2.38,0,0,0,3.16-1.46,2,2,0,0,0-2.87-2.24,1.49,1.49,0,1,0,1.5,2.58Z"/><path class="cls-3" d="M704.18,407.66,684.59,426.2c13.32-3.21,22.36-4,30.07-12a14,14,0,0,1,4.22-3.55,12,12,0,0,1,4.14-.75c8.54-.52,19.49-1.24,28-1.76,4.79-.29,10.42-4,12.28-8.21s.94-7.56,1.06-10.93c.25-7.48-.11-9.94-.92-17.38-.37-3.39-1-7-3.4-9.42s-5.91-2.92-9.22-3.29a165.27,165.27,0,0,0-55,3.16c-2.88.65-5.84,1.44-8.1,3.35-4,3.38-4.64,9.2-5,14.43-.63,9.13,0,20.52,8.32,24.34,2.58,1.19,10.64,4.94,13.33,4.05"/><path class="cls-15" d="M739.94,385.67l2.19-1.25h-2.46c-.31-.26-.38-.31-.21-.14-.24-.34-.3-.4-.16-.19-.16-.39-.19-.47-.11-.23s0,.16,0-.28a1,1,0,0,1,0,.25c.08-.44.08-.53,0-.28s-.05.16.1-.24c-.13.21-.08.15.16-.19-.19.17-.12.12.2-.15-.23.11-.15.08.24-.1-.25.06-.16.06.28,0h-.25c.43.07.53.08.27,0s-.16,0,.23.11c-.21-.12-.15-.07.19.18-.18-.18-.13-.11.13.21l.25,1.88c-.18.37-.2.45-.08.23-.26.31-.3.38-.13.19s.12-.12-.19.14c.22-.12.15-.1-.23.07l.25-.08c-.43,0-.52.06-.26,0s.17,0-.26-.05a1.21,1.21,0,0,1,.25.08,2.45,2.45,0,0,0,3-1.7,2.49,2.49,0,0,0-1.7-3,4.31,4.31,0,0,0-4.85,1.74,2.74,2.74,0,0,0,.3,3.61,4.13,4.13,0,0,0,2.39,1.14,4,4,0,0,0,4.38-2.7,4.24,4.24,0,0,0-1.73-4.76,2.43,2.43,0,0,0-2.46,0l-2.19,1.26a2.43,2.43,0,1,0,2.46,4.2Z"/><path class="cls-15" d="M721,381.73a3.43,3.43,0,0,0-4.92,2.19,3,3,0,0,0,1.54,3.49,8.57,8.57,0,0,0,3.08.22,2.49,2.49,0,0,0,2.35-1.78c.58-1.76-.07-4.36-1.9-5.13-2.28-1-4.56,1-4.56,3.33a2.44,2.44,0,0,0,4.88,0c0-.26,0-.17,0,.26a1.36,1.36,0,0,1-.37.62c.18-.18.11-.13-.2.14a1.92,1.92,0,0,1-1.3.22l-1.08-.63c.34.36-.28-.41,0,0s-.21-.54,0,0c.08.24-.08-.64,0-.08,0,.19,0,.09,0-.29a2.68,2.68,0,0,1-.07.27l2.34-1.79-2.14,0,2.1,1.21c-.14-.21-.1-.1.11.31a1.66,1.66,0,0,1,0,.91l-.17.39c.13-.2.06-.12-.2.24.29-.29-.52.33-.17.13a1.72,1.72,0,0,1-1.7,0,2.44,2.44,0,0,0,2.46-4.21Z"/><path class="cls-15" d="M698.83,381.42c-2.37-1.48-5.06.9-4.72,3.41s3.12,3.41,5.18,2.63c2.38-.9,2.51-4,.79-5.62a3.76,3.76,0,0,0-5.3-.15,2.47,2.47,0,0,0,0,3.44l2.33,2.53a2.49,2.49,0,0,0,2.95.38,4,4,0,1,0-4.79-6.33,2.43,2.43,0,0,0,3.44,3.44c.18-.18.12-.15-.17.1.23-.13.16-.1-.19.06.41-.14-.55,0-.08,0-.38-.07-.48-.09-.29,0l.21.06a1.07,1.07,0,0,1-.59-.34q.21.21,0,0a.81.81,0,0,1-.23-.45c.06.26.06.18,0-.23,0,.46.14-.55,0-.07s.24-.45,0-.06a1,1,0,0,1,.48-.47,1.26,1.26,0,0,1-.26.13l3,.39-2.34-2.53v3.44c.14-.13.11-.12-.06,0a1.2,1.2,0,0,1-.53.29l-.43.05c.18,0,.14,0-.1,0s-.29,0-.1,0l-.37-.16c.32.16.13.21-.08-.12.05.08.3.38.05,0s0,0,0,0a1,1,0,0,1-.19-.59c0-.25,0-.29,0-.11l.05-.42q.28-.6.09-.27l1.46-1.12-.29.1c-.37.14.15-.09.19,0h-.31c.12-.1.78.27.6.14s-.1,0,.23.25a.79.79,0,0,1,.39.72,1.3,1.3,0,0,1,0,1,1.79,1.79,0,0,1-2.42.68,2.43,2.43,0,1,0,2.46-4.2Z"/><path class="cls-11" d="M310.6,632.39s-15.14,21,3,43.08c53.85-.44,277.78,0,277.78,0s-12.5-19.88-.46-44.13C557.07,631.34,310.6,632.39,310.6,632.39Z"/><path class="cls-11" d="M591.37,675.47l100.82-46s-14.53-18.66-2.52-41.38c-38.57,16.48-98.76,43.26-98.76,43.26S578,656.24,591.37,675.47Z"/><line class="cls-17" x1="313.59" y1="640.39" x2="581.96" y2="640.39"/><line class="cls-17" x1="313.59" y1="648.58" x2="581.96" y2="648.58"/><line class="cls-17" x1="313.59" y1="656.77" x2="581.96" y2="656.77"/><line class="cls-17" x1="313.59" y1="664.96" x2="581.96" y2="664.96"/><line class="cls-17" x1="337.97" y1="693.42" x2="606.33" y2="693.42"/><line class="cls-17" x1="337.97" y1="701.61" x2="606.33" y2="701.61"/><line class="cls-17" x1="337.97" y1="709.8" x2="606.33" y2="709.8"/><line class="cls-17" x1="337.97" y1="718" x2="606.33" y2="718"/><line class="cls-17" x1="338.8" y1="750.82" x2="607.16" y2="750.82"/><line class="cls-17" x1="338.8" y1="759.01" x2="607.16" y2="759.01"/><line class="cls-17" x1="338.8" y1="767.2" x2="607.16" y2="767.2"/><line class="cls-17" x1="338.8" y1="775.4" x2="607.16" y2="775.4"/><polygon class="cls-16" points="592.37 640.26 679.3 601.5 592.48 640.51 592.37 640.26"/><polygon class="cls-16" points="592.37 648.44 679.3 609.68 592.48 648.68 592.37 648.44"/><polygon class="cls-16" points="592.37 656.65 679.3 617.89 592.48 656.89 592.37 656.65"/><polygon class="cls-16" points="595.65 664.17 682.59 625.41 595.76 664.41 595.65 664.17"/><polygon class="cls-16" points="616.65 691.25 698.76 651.73 616.77 691.5 616.65 691.25"/><polygon class="cls-16" points="615.43 700.51 697.54 660.98 615.55 700.75 615.43 700.51"/><polygon class="cls-16" points="615.43 709.68 697.54 670.15 615.55 709.92 615.43 709.68"/><polygon class="cls-16" points="616.65 717.88 698.76 678.35 616.77 718.12 616.65 717.88"/><path class="cls-18" d="M593.32,420.94a15.32,15.32,0,0,0-5.11,4.6,2,2,0,0,0-.48,1.41,1.79,1.79,0,0,0,1,1.13c6.55,3.83,8,5.26,15,7.72-.35-3.1,4.42-3.78,4.07-6.88a2.7,2.7,0,0,0-.23-.95,2.15,2.15,0,0,0-1.7-1l-5.41-1a13.36,13.36,0,0,1-4.34-1.35,5.59,5.59,0,0,1-2.78-3.83"/><path class="cls-18" d="M618.73,421.38a14.58,14.58,0,0,1,4.88,4.39,1.89,1.89,0,0,1,.46,1.35,1.72,1.72,0,0,1-1,1.08c-6.25,3.66-6.39,4.8-13.1,7.15.34-3-5.47-3.39-5.13-6.35a2.52,2.52,0,0,1,.21-.91,2.06,2.06,0,0,1,1.62-.91l5.17-1a12.87,12.87,0,0,0,4.14-1.29,5.31,5.31,0,0,0,2.65-3.66"/><circle class="cls-18" cx="606.09" cy="441.48" r="2.29"/><circle class="cls-18" cx="606.09" cy="460.7" r="2.29"/><circle class="cls-18" cx="606.09" cy="479.91" r="2.29"/><circle class="cls-18" cx="606.09" cy="518.34" r="2.29"/><circle class="cls-18" cx="606.09" cy="537.56" r="2.29"/><circle class="cls-18" cx="606.09" cy="556.77" r="2.29"/><circle class="cls-5" cx="309.64" cy="363.57" r="3.52"/><circle class="cls-6" cx="319.47" cy="363.57" r="3.52"/><circle class="cls-7" cx="329.22" cy="363.57" r="3.52"/><circle class="cls-5" cx="800.19" cy="443.77" r="3.52"/><circle class="cls-6" cx="810.02" cy="443.77" r="3.52"/><circle class="cls-7" cx="819.77" cy="443.77" r="3.52"/><circle class="cls-6" cx="727.84" cy="510.09" r="3.52"/><circle class="cls-7" cx="737.59" cy="510.09" r="3.52"/><rect class="cls-19" x="306.12" y="386.43" width="113.54" height="3.14"/><rect class="cls-19" x="306.12" y="396.49" width="113.54" height="3.14"/><rect class="cls-19" x="306.12" y="406.54" width="113.54" height="3.14"/><rect class="cls-19" x="306.12" y="416.6" width="113.54" height="3.14"/><rect class="cls-19" x="306.12" y="426.66" width="113.54" height="3.14"/><rect class="cls-19" x="306.12" y="436.72" width="113.54" height="3.14"/><rect class="cls-20" x="753.25" y="538.74" width="113.54" height="3.14"/><rect class="cls-20" x="753.25" y="548.79" width="113.54" height="3.14"/><rect class="cls-20" x="753.25" y="558.85" width="113.54" height="3.14"/><rect class="cls-20" x="753.25" y="568.91" width="113.54" height="3.14"/><rect class="cls-20" x="753.25" y="578.97" width="113.54" height="3.14"/><rect class="cls-20" x="753.25" y="589.02" width="113.54" height="3.14"/><path class="cls-3" d="M342.55,577.1v45.28l13.15,6.87-13.85-3.41h-79.8c-4.63,0-8.39-1.55-8.39-3.48V576.87c0-2.12,4.16-3.85,9.28-3.85h69.79C338.16,573,342.55,574.85,342.55,577.1Z"/><path class="cls-3" d="M724.2,659.69V706.8l-13.87,7.14L725,710.4h84.22c4.89,0,8.85-1.62,8.85-3.62V659.45c0-2.21-4.38-4-9.79-4H734.57C728.84,655.45,724.2,657.35,724.2,659.69Z"/><path class="cls-21" d="M267.21,592.85h4.27a5.06,5.06,0,0,1,5.33,5.44c0,3.26-2.06,5.7-5.41,5.7h-4.19Zm2.09,9.43h2c2.31,0,3.35-1.69,3.35-4,0-1.95-1-3.74-3.34-3.74h-2Z"/><path class="cls-21" d="M286.9,599.83c0,2.47-1.46,4.35-4,4.35s-4-1.83-4-4.31,1.5-4.35,4.08-4.35C285.34,595.52,286.9,597.24,286.9,599.83Zm-6,0c0,1.67.76,2.74,2,2.74s2-1.05,2-2.73-.71-2.75-2-2.75S280.91,598.05,280.91,599.85Z"/><path class="cls-21" d="M296.32,601.58c0,.8,0,1.75,0,2.41h-2c0-.22-.05-.68-.06-1a2.39,2.39,0,0,1-2.36,1.24c-1.59,0-2.75-.91-2.75-3.06v-5.41h2v5c0,1,.3,1.82,1.42,1.82s1.69-.66,1.69-2.44v-4.38h2Z"/><path class="cls-21" d="M299.19,592.21h2v4.48a2.62,2.62,0,0,1,2.46-1.17c2.2,0,3.39,1.81,3.39,4.18s-1.24,4.48-3.61,4.48a2.3,2.3,0,0,1-2.26-1.08,5.22,5.22,0,0,1-.08.89h-1.92c0-.91,0-1.82,0-2.73Zm5.81,7.52c0-1.51-.62-2.59-1.92-2.59-1.47,0-2,1-2,2.75,0,1.5.46,2.68,1.94,2.68C304.3,602.57,305,601.45,305,599.73Z"/><path class="cls-21" d="M308.49,595.71h1.33V593.4h2v2.31h1.69v1.54h-1.69v4.34c0,.69.19,1,.9,1a4.14,4.14,0,0,0,.58,0V604a4.9,4.9,0,0,1-1.43.15c-1.51,0-2.06-.79-2.06-2.22v-4.63h-1.33Z"/><path class="cls-21" d="M317.3,601.54a1.58,1.58,0,0,0,1.72,1.17c1,0,1.34-.38,1.34-1s-.37-.88-1.68-1.2c-2.59-.63-3.05-1.43-3.05-2.59s.86-2.44,3.23-2.44,3.25,1.32,3.33,2.45h-1.91c-.09-.38-.36-1-1.5-1-.9,0-1.18.41-1.18.84s.29.71,1.69,1c2.68.63,3.11,1.54,3.11,2.76,0,1.4-1.08,2.58-3.45,2.58s-3.43-1.17-3.62-2.64Z"/><path class="cls-21" d="M331.38,600.53v-.28a3.64,3.64,0,0,1,1.59-2.88,2.28,2.28,0,0,0,.94-1.81,1.23,1.23,0,0,0-1.33-1.3c-1,0-1.4.66-1.52,1.55h-2a3.22,3.22,0,0,1,3.51-3.12c2.55,0,3.33,1.69,3.33,2.93,0,1-.35,1.76-1.52,2.84a2.42,2.42,0,0,0-1,1.91v.16Zm0,3.46v-2.52h2.08V604Z"/><path class="cls-21" d="M744.69,684.78a4.39,4.39,0,0,1-4.68,3.49c-3.47,0-5.14-2.51-5.14-5.67s1.71-5.78,5.23-5.78c2.85,0,4.29,1.65,4.58,3.52h-2.09a2.41,2.41,0,0,0-2.56-1.86c-2.15,0-3,1.94-3,4s.77,4.08,3.07,4.08a2.43,2.43,0,0,0,2.48-1.83Z"/><path class="cls-21" d="M754.79,684c0,2.47-1.46,4.35-4,4.35s-4-1.83-4-4.31,1.5-4.35,4.08-4.35C753.23,679.65,754.79,681.37,754.79,684Zm-6,0c0,1.67.76,2.74,2,2.74s2-1.05,2-2.73-.71-2.75-2-2.75S748.8,682.18,748.8,684Z"/><path class="cls-21" d="M764.21,685.71c0,.8,0,1.75,0,2.41h-2c0-.22,0-.68-.06-1a2.38,2.38,0,0,1-2.35,1.24c-1.59,0-2.76-.91-2.76-3.06v-5.41h2v5c0,1,.3,1.82,1.42,1.82s1.69-.66,1.69-2.44v-4.38h2Z"/><path class="cls-21" d="M767.08,682.09c0-.94,0-1.64,0-2.25h2c0,.2.05,1,.05,1.53a2.74,2.74,0,0,1,2.7-1.72v1.93c-1.67,0-2.7.58-2.7,2.79v3.75h-2Z"/><path class="cls-21" d="M775.3,685.67a1.58,1.58,0,0,0,1.72,1.17c1,0,1.34-.38,1.34-1s-.37-.88-1.69-1.2c-2.58-.64-3-1.43-3-2.59s.86-2.44,3.23-2.44,3.25,1.32,3.33,2.45h-1.91c-.09-.38-.36-1-1.51-1-.89,0-1.17.41-1.17.84s.29.71,1.69,1c2.68.63,3.11,1.54,3.11,2.76,0,1.4-1.08,2.58-3.45,2.58s-3.43-1.17-3.63-2.64Z"/><path class="cls-21" d="M784.19,684.39c0,1.26.63,2.33,1.86,2.33a1.52,1.52,0,0,0,1.64-1h2a3.53,3.53,0,0,1-3.69,2.61c-2.69,0-3.83-2.06-3.83-4.22,0-2.55,1.3-4.44,3.91-4.44,2.79,0,3.73,2.08,3.73,4.05a5,5,0,0,1,0,.69Zm3.61-1.27c0-1.1-.51-2-1.72-2s-1.73.85-1.84,2Z"/><path class="cls-21" d="M793.68,685.67a1.59,1.59,0,0,0,1.72,1.17c1,0,1.34-.38,1.34-1s-.36-.88-1.68-1.2c-2.59-.64-3-1.43-3-2.59s.86-2.44,3.24-2.44,3.24,1.32,3.32,2.45h-1.91c-.09-.38-.36-1-1.5-1-.9,0-1.17.41-1.17.84s.28.71,1.68,1c2.68.63,3.11,1.54,3.11,2.76,0,1.4-1.08,2.58-3.45,2.58s-3.43-1.17-3.62-2.64Z"/><path class="cls-21" d="M806.8,684.18l-.26-5.26V677h2.13v1.95l-.25,5.25Zm-.2,4v-2.52h2v2.52Z"/></svg>