<svg id="Layer_1" data-name="Layer 1" xmlns="http://www.w3.org/2000/svg" viewBox="0 0 1080 1080"><defs><style>.cls-1,.cls-15,.cls-16{fill:#fff;}.cls-2{opacity:0.22;}.cls-3{fill:#f8b0b5;}.cls-4{fill:#b7b7b7;opacity:0.35;}.cls-5{fill:#333;}.cls-6{fill:#fdfefe;}.cls-12,.cls-6{stroke:#4c4c4d;}.cls-12,.cls-15,.cls-22,.cls-23,.cls-6{stroke-miterlimit:10;}.cls-7{fill:#4c4c4d;}.cls-8{fill:#118341;}.cls-10,.cls-8,.cls-9{opacity:0.69;}.cls-9{fill:#e9cf34;}.cls-10{fill:#ed2024;}.cls-11{fill:#515251;opacity:0.47;}.cls-12{fill:#e5e3e3;stroke-width:9px;}.cls-13{fill:#2b3583;}.cls-14{fill:#c7caca;}.cls-15{stroke:#151213;stroke-width:1.22px;}.cls-16{opacity:0.18;}.cls-17{font-size:243.5px;fill:#fffeff;font-family:Oswald-Regular, Oswald;}.cls-18{fill:#fdcda0;}.cls-19{fill:#a1a5a7;}.cls-20{opacity:0.29;}.cls-21{fill:#7b7b7b;}.cls-22{fill:#d6d6d6;stroke:#231f20;opacity:0.58;}.cls-22,.cls-23{stroke-width:2.9px;}.cls-23{fill:none;stroke:#5e5f5f;}</style></defs><rect class="cls-1" x="-1.6" width="1080" height="1080"/><g class="cls-2"><path class="cls-3" d="M286.45,434.83c-43.1,9.26-65.92,18.68-91.83,37.82s-44.33,52.58-42.91,89.4C153,594.52,168.81,625.53,173,658c4.49,34.68-4.59,68.58-2.38,103.32s23.26,75.35,53.54,76.14c23.36.61,40-22.52,62-29.53,27.48-8.78,58.49,9.24,81.15,32.74s40.48,52.77,63.91,75.24,56,37.64,82,24.85c23.39-11.51,34.25-41.87,38.4-71.14s3.67-60.24,13.05-87.38c16-46.28,57.6-72.55,99.57-86.66s87-19.36,126.71-39.25a202.61,202.61,0,0,0,70-58.54c24.94-32.66,41.81-77.64,31.78-122.45-8.15-36.42-32.27-66.38-48.42-99.88-16.48-34.19-2.69-43.59-25.2-73.3-28.18-37.21-63.2-43.18-104.19-41.68-37.5,1.37-86.76,29.87-110.92,60.86-34.2,43.89-80,78.11-132.88,84.48-33.21,4-67.55-3-101.12-1.76s-46.6,12.71-83.54,30.79"/></g><path class="cls-4" d="M261.26,679H445.77a0,0,0,0,1,0,0v90.28a12.53,12.53,0,0,1-12.53,12.53H276.57a15.32,15.32,0,0,1-15.32-15.32V679A0,0,0,0,1,261.26,679Z"/><path class="cls-5" d="M321.26,526.56l-77.82-81.42a8.63,8.63,0,0,0-12.19-.27L102,568.41a8.64,8.64,0,0,0-.27,12.2L179.54,662a8.61,8.61,0,0,0,12.19.27L321,538.76A8.62,8.62,0,0,0,321.26,526.56ZM186.43,657.21l-78.21-81.82,129.9-124.16,78.21,81.82Z"/><path class="cls-6" d="M693.33,562.22s89.31-10.82,127.83,2.09c-8.62,80.13-14.24,194.43-14.24,194.43s-94.4-24-127.16-14.1C686.49,666.92,693.33,562.22,693.33,562.22Z"/><path class="cls-6" d="M690,560.64s88.86-14,127.82-2.51c-5.73,80.38-7.22,194.81-7.22,194.81S715.41,732.4,683,743.43C687,665.52,690,560.64,690,560.64Z"/><path class="cls-6" d="M686.68,559.94S775,542.63,814.32,552.7c-2.74,80.54,0,194.95,0,194.95s-95.9-17-127.85-4.78C687.51,664.87,686.68,559.94,686.68,559.94Z"/><rect class="cls-7" x="378.97" y="541.79" width="308.54" height="211.99" rx="16.17"/><path class="cls-4" d="M747.54,429.57H899.29a17.53,17.53,0,0,1,17.53,17.53v16a0,0,0,0,1,0,0H732.3a0,0,0,0,1,0,0v-18.3A15.23,15.23,0,0,1,747.54,429.57Z"/><path class="cls-4" d="M732.3,468H916.82a0,0,0,0,1,0,0v90.28a12.53,12.53,0,0,1-12.53,12.53H747.62a15.32,15.32,0,0,1-15.32-15.32V468A0,0,0,0,1,732.3,468Z"/><circle class="cls-8" cx="742.54" cy="457.03" r="3.52"/><circle class="cls-9" cx="752.38" cy="457.03" r="3.52"/><circle class="cls-10" cx="762.12" cy="457.03" r="3.52"/><rect class="cls-11" x="792.11" y="479.88" width="113.54" height="3.14"/><rect class="cls-11" x="792.11" y="489.94" width="113.54" height="3.14"/><rect class="cls-11" x="792.11" y="500" width="113.54" height="3.14"/><rect class="cls-11" x="792.11" y="510.06" width="113.54" height="3.14"/><rect class="cls-11" x="792.11" y="520.11" width="113.54" height="3.14"/><rect class="cls-11" x="792.11" y="530.17" width="113.54" height="3.14"/><path class="cls-4" d="M276.49,640.45H428.24A17.53,17.53,0,0,1,445.77,658v16a0,0,0,0,1,0,0H261.26a0,0,0,0,1,0,0v-18.3A15.23,15.23,0,0,1,276.49,640.45Z"/><circle class="cls-8" cx="269.4" cy="667.58" r="3.52"/><circle class="cls-9" cx="279.23" cy="667.58" r="3.52"/><circle class="cls-10" cx="288.98" cy="667.58" r="3.52"/><path class="cls-12" d="M350.2,429.76H713.13A7.44,7.44,0,0,1,720,440l-38,94.12H384.6l-40.23-95.55A6.33,6.33,0,0,1,350.2,429.76Z"/><rect class="cls-1" x="379.92" y="541.79" width="306.1" height="210.54" rx="16.17"/><rect class="cls-13" x="482.75" y="687.86" width="100.98" height="53.69"/><rect class="cls-14" x="366.76" y="443.2" width="213.56" height="2.97"/><rect class="cls-14" x="371.64" y="452.31" width="203.59" height="2.83"/><rect class="cls-14" x="376.53" y="461.45" width="192.81" height="2.68"/><rect class="cls-14" x="379.92" y="470.61" width="182.71" height="2.54"/><rect class="cls-14" x="383.54" y="479.7" width="173.21" height="2.41"/><path class="cls-6" d="M686.68,556.18s88.29-17.31,127.64-7.24c-2.74,80.54,0,194.95,0,194.95s-95.9-17-127.85-4.78C687.51,661.11,686.68,556.18,686.68,556.18Z"/><path class="cls-1" d="M494.39,719.56c0,2.65-1.18,3.42-2.76,3.42a4.81,4.81,0,0,1-1-.1V722a5.16,5.16,0,0,0,1.06.09c1.6,0,1.8-1.24,1.8-2.58v-8.64h.92Z"/><path class="cls-1" d="M508.48,716.78c0,3.24-1.73,6.2-5.41,6.2-3.35,0-5.3-2.7-5.3-6.12s1.89-6.12,5.42-6.12C506.46,710.74,508.48,713.31,508.48,716.78Zm-9.72,0c0,2.74,1.51,5.32,4.37,5.32,3.07,0,4.36-2.52,4.36-5.34s-1.46-5.2-4.33-5.2C500.1,711.59,498.76,714.12,498.76,716.81Z"/><path class="cls-1" d="M512.85,710.91v11.9h-.92v-11.9Z"/><path class="cls-1" d="M517.18,722.81v-11.9h1.36c1.86,2.86,6.21,9.5,7,10.8h0c-.1-1.72-.08-3.47-.08-5.41v-5.39h.93v11.9h-1.25c-1.77-2.75-6.19-9.67-7-11h0c.09,1.56.07,3.3.07,5.46v5.52Z"/><path class="cls-1" d="M535.78,722.81v-11.9h1.36c1.86,2.86,6.21,9.5,7,10.8h0c-.1-1.72-.08-3.47-.08-5.41v-5.39H545v11.9H543.7c-1.76-2.75-6.18-9.67-7-11h0c.08,1.56.07,3.3.07,5.46v5.52Z"/><path class="cls-1" d="M559.12,716.78c0,3.24-1.73,6.2-5.4,6.2-3.35,0-5.31-2.7-5.31-6.12s1.89-6.12,5.42-6.12C557.1,710.74,559.12,713.31,559.12,716.78Zm-9.72,0c0,2.74,1.51,5.32,4.37,5.32,3.07,0,4.37-2.52,4.37-5.34s-1.47-5.2-4.34-5.2C550.74,711.59,549.4,714.12,549.4,716.81Z"/><path class="cls-1" d="M564.65,722.81l-3.3-11.9h.95c.8,2.86,2.6,9.43,2.87,10.83h0c.22-1.11,2.18-7.68,3-10.83h1c.78,2.91,2.69,9.89,2.87,10.81h0c.37-1.68,2.36-8,3.18-10.81h.93l-3.63,11.9h-1.06c-.78-2.81-2.63-9.69-2.84-10.71h0c-.31,1.55-2.15,7.75-3,10.71Z"/><rect class="cls-15" x="122.43" y="497.63" width="179.69" height="113.19" transform="translate(-324.12 300.25) rotate(-43.71)"/><path class="cls-13" d="M154.77,498.69h106a5.58,5.58,0,0,1,5.58,5.58V525a5.88,5.88,0,0,1-5.88,5.88H149.3a0,0,0,0,1,0,0V504.16A5.48,5.48,0,0,1,154.77,498.69Z" transform="translate(-297.55 285) rotate(-43.57)"/><polygon class="cls-13" points="170.59 558.08 175.17 575.5 184.32 555.98 170.59 558.08"/><rect class="cls-3" x="114.52" y="582.91" width="100.15" height="35.56" rx="3.85" transform="translate(483.29 65.58) rotate(46.1)"/><path class="cls-16" d="M240.66,443.2,184.32,664.56s-79.18-80.58-82.6-83.95c-3.64-3.58-6-8.15,11.26-22.69,16.13-13.62,118.27-113,118.27-113A9.69,9.69,0,0,1,240.66,443.2Z"/><text class="cls-17" transform="translate(586.71 510.06)">?</text><rect class="cls-4" x="396.05" y="560.66" width="18.31" height="6.1"/><rect class="cls-4" x="418.63" y="560.66" width="18.31" height="6.1"/><rect class="cls-4" x="441.2" y="560.66" width="18.31" height="6.1"/><rect class="cls-4" x="463.78" y="560.66" width="18.31" height="6.1"/><rect class="cls-4" x="486.36" y="560.66" width="18.31" height="6.1"/><rect class="cls-4" x="508.93" y="560.66" width="18.31" height="6.1"/><rect class="cls-4" x="531.51" y="560.66" width="18.31" height="6.1"/><rect class="cls-4" x="554.08" y="560.66" width="18.31" height="6.1"/><rect class="cls-4" x="576.66" y="560.66" width="18.31" height="6.1"/><rect class="cls-4" x="599.24" y="560.66" width="18.31" height="6.1"/><rect class="cls-4" x="621.81" y="560.66" width="18.31" height="6.1"/><rect class="cls-4" x="644.39" y="560.66" width="18.31" height="6.1"/><rect class="cls-4" x="396.05" y="570.79" width="18.31" height="18.31"/><rect class="cls-4" x="418.63" y="570.79" width="18.31" height="18.31"/><rect class="cls-4" x="441.2" y="570.79" width="18.31" height="18.31"/><rect class="cls-4" x="463.78" y="570.79" width="18.31" height="18.31"/><rect class="cls-4" x="486.36" y="570.79" width="18.31" height="18.31"/><rect class="cls-4" x="508.93" y="570.79" width="18.31" height="18.31"/><rect class="cls-4" x="531.51" y="570.79" width="18.31" height="18.31"/><rect class="cls-4" x="554.08" y="570.79" width="18.31" height="18.31"/><rect class="cls-4" x="576.66" y="570.79" width="18.31" height="18.31"/><rect class="cls-4" x="599.24" y="570.79" width="18.31" height="18.31"/><rect class="cls-4" x="621.81" y="570.79" width="18.31" height="18.31"/><rect class="cls-4" x="644.39" y="570.79" width="18.31" height="18.31"/><rect class="cls-4" x="396.05" y="592.51" width="18.31" height="18.31"/><rect class="cls-4" x="418.63" y="592.51" width="18.31" height="18.31"/><rect class="cls-4" x="441.2" y="592.51" width="18.31" height="18.31"/><rect class="cls-4" x="463.78" y="592.51" width="18.31" height="18.31"/><rect class="cls-4" x="486.36" y="592.51" width="18.31" height="18.31"/><rect class="cls-4" x="508.93" y="592.51" width="18.31" height="18.31"/><rect class="cls-4" x="531.51" y="592.51" width="18.31" height="18.31"/><rect class="cls-4" x="554.08" y="592.51" width="18.31" height="18.31"/><rect class="cls-4" x="576.66" y="592.51" width="18.31" height="18.31"/><rect class="cls-4" x="599.24" y="592.51" width="18.31" height="18.31"/><rect class="cls-4" x="621.81" y="592.51" width="18.31" height="18.31"/><rect class="cls-4" x="644.39" y="592.51" width="18.31" height="18.31"/><rect class="cls-4" x="396.05" y="616.8" width="18.31" height="15.74"/><rect class="cls-4" x="418.63" y="616.8" width="18.31" height="15.74"/><rect class="cls-4" x="441.2" y="616.8" width="18.31" height="15.74"/><rect class="cls-4" x="463.78" y="616.8" width="86.03" height="15.74"/><rect class="cls-4" x="554.08" y="616.8" width="18.31" height="15.74"/><rect class="cls-4" x="576.66" y="616.8" width="18.31" height="15.74"/><rect class="cls-4" x="599.24" y="616.8" width="18.31" height="15.74"/><rect class="cls-4" x="621.81" y="616.8" width="18.31" height="15.74"/><rect class="cls-4" x="644.39" y="616.8" width="18.31" height="15.74"/><path class="cls-18" d="M459.14,797.32s5.89-12.88,4.9-15.94-2.4-4.75,0-9.78,11.77-25.13,13.1-26,8.49-4.25,10.13,3c5.77-3,10.24-4.43,12.6.45,6.63-3,10.61-2.09,12.45,1.7,3.57-9.08,11.84-24.65,15.58-24.38s8,1.56,6.88,6.1S518.29,769,518.29,769s7.2-8.45,10.38-9.84,11.81,1,9.28,6.6-15.54,22.1-19.24,25.24-12.29,6.29-19.09,11.26-9.08,10.45-9.08,10.45Z"/><polygon class="cls-19" points="454.03 794.94 449.62 804.41 490.26 822.15 494.18 813.63 454.03 794.94"/><polygon class="cls-13" points="412.59 875.9 447.58 800.87 495.2 821.93 470.32 875.9 412.59 875.9"/><path class="cls-18" d="M684,701.42s-6.25-13.66-5.2-16.91,2.55-5,0-10.37-12.5-26.67-13.9-27.6-9-4.5-10.75,3.22c-6.11-3.12-10.86-4.69-13.37.49-7-3.16-11.25-2.22-13.2,1.79-3.78-9.62-12.56-26.14-16.53-25.85s-8.51,1.65-7.3,6.47,17.45,38.69,17.45,38.69-7.64-9-11-10.44-12.52,1.05-9.84,7,16.49,23.44,20.41,26.77,13,6.68,20.25,12,9.63,11.08,9.63,11.08Z"/><polygon class="cls-19" points="689.38 698.9 694.06 708.94 650.95 727.75 646.79 718.72 689.38 698.9"/><polygon class="cls-13" points="784.12 875.9 696.22 705.18 645.7 727.53 714.1 875.9 784.12 875.9"/><path class="cls-13" d="M872.59,617.67c3.22,0,3.23-5,0-5s-3.22,5,0,5Z"/><g class="cls-20"><path class="cls-21" d="M702.78,578c31.41-12.51,65.64-10.73,98.73-8.73,1.61.1,1.6-2.4,0-2.5-33.3-2-67.79-3.77-99.4,8.82-1.48.59-.83,3,.67,2.41Z"/></g><g class="cls-20"><path class="cls-21" d="M702.39,594.92a246.91,246.91,0,0,1,99-9.12c1.6.18,1.59-2.32,0-2.5a248.72,248.72,0,0,0-99.64,9.2,1.25,1.25,0,0,0,.66,2.42Z"/></g><g class="cls-20"><path class="cls-21" d="M702.39,611.9a307.28,307.28,0,0,1,99.43-6.58c1.61.16,1.59-2.34,0-2.5a309.44,309.44,0,0,0-100.1,6.67c-1.56.36-.9,2.77.67,2.41Z"/></g><g class="cls-20"><path class="cls-21" d="M703.25,629c15.62-6.84,33.78-6.39,50.53-7.25q12.69-.66,25.39-1.1c7.92-.28,17.11-1.71,24.05,2.94,1.34.9,2.6-1.26,1.27-2.16-6.39-4.28-14.07-3.65-21.41-3.42q-14.66.48-29.3,1.24c-17.25.88-35.7.55-51.8,7.59-1.47.65-.2,2.8,1.27,2.16Z"/></g><g class="cls-20"><path class="cls-21" d="M773.68,710.78A66.6,66.6,0,0,1,802,712.49a1.25,1.25,0,0,0,.67-2.41A69.77,69.77,0,0,0,773,708.37c-1.58.25-.91,2.66.67,2.41Z"/></g><g class="cls-20"><path class="cls-21" d="M784.29,727.09a58.4,58.4,0,0,1,18.76,1.76,1.25,1.25,0,0,0,.67-2.41,60.87,60.87,0,0,0-19.43-1.85c-1.59.11-1.61,2.61,0,2.5Z"/></g><rect class="cls-22" x="216.99" y="739.57" width="40.07" height="32.95" rx="6.51" transform="translate(-323.4 195.95) rotate(-27.61)"/><line class="cls-23" x1="214.65" y1="756.5" x2="301.1" y2="713.33"/><path class="cls-23" d="M228.39,768.65s-8.53-14.75,4.94-21.48"/><path class="cls-23" d="M283.5,722.12A16.06,16.06,0,0,1,302,730"/><path class="cls-23" d="M254.24,745.73s-1.51-8.25,3.64-10.82,9.54.48,11.31,3.86"/><rect class="cls-22" x="267.93" y="714.97" width="40.07" height="32.95" rx="6.51" transform="translate(-306.2 216.76) rotate(-27.61)"/><rect class="cls-11" x="170.08" y="533.18" width="113.54" height="3.14" transform="translate(-305.8 303.02) rotate(-43.5)"/><rect class="cls-11" x="177.01" y="540.47" width="113.54" height="3.14" transform="translate(-308.92 309.79) rotate(-43.5)"/><rect class="cls-11" x="183.93" y="547.77" width="113.54" height="3.14" transform="translate(-312.04 316.56) rotate(-43.5)"/><rect class="cls-11" x="190.85" y="555.06" width="113.54" height="3.14" transform="translate(-315.16 323.33) rotate(-43.5)"/><rect class="cls-11" x="197.78" y="562.36" width="113.54" height="3.14" transform="translate(-318.28 330.1) rotate(-43.5)"/></svg>